<svg width="80" height="80" viewBox="0 0 80 80" role="img" xmlns="http://www.w3.org/2000/svg">
  <title>AI sparkle icon</title>
  <path d="M54 14 C54 14 56 26 58 28 C60 30 72 32 72 32 C72 32 60 34 58 36 C56 38 54 50 54 50 C54 50 52 38 50 36 C48 34 36 32 36 32 C36 32 48 30 50 28 C52 26 54 14 54 14 Z" fill="#55a447"/>
  <path d="M26 8 C26 8 27.5 16 29 17.5 C30.5 19 38 20.5 38 20.5 C38 20.5 30.5 22 29 23.5 C27.5 25 26 33 26 33 C26 33 24.5 25 23 23.5 C21.5 22 14 20.5 14 20.5 C14 20.5 21.5 19 23 17.5 C24.5 16 26 8 26 8 Z" fill="#55a447"/>
  <path d="M30 52 C30 52 31 57 32 58 C33 59 38 60 38 60 C38 60 33 61 32 62 C31 63 30 68 30 68 C30 68 29 63 28 62 C27 61 22 60 22 60 C22 60 27 59 28 58 C29 57 30 52 30 52 Z" fill="#55a447"/>
</svg>