<svg xmlns="http://www.w3.org/2000/svg" width="80" height="80" viewBox="0 0 80 80" role="img" aria-label="Domain expert lightbulb head icon">
  <title>Domain Expert</title>
  <g fill="none" stroke="#14a39a" stroke-linecap="round" stroke-linejoin="round">
    <!-- Head outline facing right -->
    <path stroke-width="5.5" d="M17 74V63c0-7-2-12-5-17C8 40 5 33 5 26 5 12 18 5 34 5c15 0 27 8 31 22l2 8 7 11c1 2 1 4-1 5l-8 4v9c0 8-7 13-17 13H40v-9"/>

    <!-- Lightbulb -->
    <path stroke-width="4.6" d="M31 46c0-6-7-10-7-18 0-7 5-12 12-12s12 5 12 12c0 8-7 12-7 18"/>
    <path stroke-width="4.6" d="M30 52h13"/>
    <path stroke-width="4.6" d="M31 58h11"/>
    <path stroke-width="4.6" d="M34 64h5"/>

    <!-- Light rays -->
    <path stroke-width="4.2" d="M36 10V5"/>
    <path stroke-width="4.2" d="M24 14l-3-5"/>
    <path stroke-width="4.2" d="M15 24h-5"/>
    <path stroke-width="4.2" d="M20 36l-5 2"/>
    <path stroke-width="4.2" d="M49 14l3-5"/>
    <path stroke-width="4.2" d="M57 24h5"/>
    <path stroke-width="4.2" d="M53 36l5 2"/>
  </g>
</svg>
