<?xml version="1.0" encoding="UTF-8" standalone="no"?>
<svg
   viewBox="0 0 135.89 106.99"
   version="1.1"
   id="svg302"
   sodipodi:docname="quote.svg"
   inkscape:version="1.2 (dc2aedaf03, 2022-05-15)"
   xmlns:inkscape="http://www.inkscape.org/namespaces/inkscape"
   xmlns:sodipodi="http://sodipodi.sourceforge.net/DTD/sodipodi-0.dtd"
   xmlns="http://www.w3.org/2000/svg"
   xmlns:svg="http://www.w3.org/2000/svg">
  <sodipodi:namedview
     id="namedview304"
     pagecolor="#ffffff"
     bordercolor="#000000"
     borderopacity="0.25"
     inkscape:showpageshadow="2"
     inkscape:pageopacity="0.0"
     inkscape:pagecheckerboard="0"
     inkscape:deskcolor="#d1d1d1"
     showgrid="false"
     inkscape:zoom="9.5990281"
     inkscape:cx="62.454239"
     inkscape:cy="53.44291"
     inkscape:window-width="2880"
     inkscape:window-height="1694"
     inkscape:window-x="1317"
     inkscape:window-y="3229"
     inkscape:window-maximized="1"
     inkscape:current-layer="Warstwa_1-2" />
  <defs
     id="defs4">
    <style
       id="style2">.cls-1{fill:#b677ae;}.cls-2{fill:#2b2b2b;}</style>
  </defs>
  <g
     id="Warstwa_2"
     data-name="Warstwa 2">
    <g
       id="Warstwa_1-2"
       data-name="Warstwa 1">
      <path
         class="cls-1"
         d="M106.38,107a29.47,29.47,0,0,0,29.51-29.76c0-13.64-9.42-23.81-21.82-27,4.21-20.58,20.09-35,19.34-34.23L120,4.81c-21.08,17.61-43.4,42.41-43.4,72.42A29.53,29.53,0,0,0,106.38,107ZM35,107A29.48,29.48,0,0,0,64.47,77.23c0-13.64-9.43-23.81-21.83-27C46.86,29.62,62.73,15.23,62,16L48.6,4.81C27.52,22.42,5.2,47.22,5.2,77.23A29.53,29.53,0,0,0,35,107Z"
         id="path6"
         style="fill:#fde047;fill-opacity:1" />
      <path
         class="cls-2"
         d="M55.79,9.43c0-1.06,2.36,1.11,3.27,1.73-1.36,0-2.4.06-1.73,1.75.36.59,2.35,0,1.4.44C49,23.08,43,33.7,40.41,46.65c-2.67-3.52,1.13-.33,1.28-.29-.73-.12-.83,0-.63.21-.6.25,4,.55,3.76,1.7-.59-.11-1.53-.89-2.18-.56,1.07.52,6.49,4,6.08,3.26-.28-.31-2.56-1.47-1.57-1.21,2.56,1.38.9,0,1.69-.13,2.34,3.57,5.66,4.6,8.94,9.79,6.77,13.39,2.44,29.94-8.29,38.07-1.65,1.1-9.23,5.7-8.51,4.1-2.78.37.6-1.3-2.39-.51-1,.24-.62-.11.12-.23,1.07-.08,5.6-2.13,2.7-.71.33.12,3-1,1.63-.7,8-4.35,11.4-8.48,15.05-18.22,1.58-5.5,2.27-11.61-.86-18-.79-2.35.31-.63.81-.39C57.71,61.06,56,59.49,55,57.62c.14-.74-1.31-1.77-1.77-2.37.27.71,2,2.5,1.54,2.88a16.26,16.26,0,0,0-5.93-6c-8.55-7.25-12.73-2.43-10.27-8.51.34-2.38,5.69-17.33,5.09-12.29.06,1.7,1.42.83,1.21,0,2.7-6.1,3.29-8.71,6.56-12.44.18-1.55,5.53-6.55,5.05-5.47,1.54-.75-5.26,6.08-2.18,3C58,12.65,59.6,12.26,55.79,9.43ZM43.11,100.79c-.53,0-1,.43-1.37.66C42.1,101.38,43.3,101,43.11,100.79Zm2.68-2c-.29.2-.94.5-1,.64C44.94,99.68,46,98.92,45.79,98.83Zm3.92-2.65c-.17,0-.28.23-.42.33C49.46,96.48,49.76,96.21,49.71,96.18Zm9.55-28.9c0,.89.2,2.4.58,2.43A6,6,0,0,0,59.26,67.28ZM58.66,65c-.14-.09,0,.43.07.54-.09-.22-.29-.34,0,.32C59.1,67.14,59,65.06,58.66,65Zm-.49-1.56c0,.52-.41.14-.1.67C58.54,64.12,58.33,63.25,58.17,63.41Zm-2-5.36c-.09.16.9,1.11,1,1.22C57,58.81,56.34,58,56.22,58.05Zm-5.31-5.12a14.27,14.27,0,0,0,1.37,1.3A3.6,3.6,0,0,0,50.91,52.93Zm-11.4-6.41h-.42C38.39,46.52,40,46.9,39.51,46.52Zm-.36-.8c.15.51.69,1.21-.09.06C39.61,46.1,39.66,45.8,39.15,45.72Zm.68-1c0-.36-.14.32-.11.37S39.81,44.86,39.83,44.75ZM39,43.55c-.07-.23-.4.78-.38,1S39,43.7,39,43.55Zm.75-1.82c-.32.06-.66,1.29-.4,1.38S39.85,41.61,39.73,41.73Zm.73-1.22c0-.06-.06,0-.1.15C40.14,41.91,40.74,40.47,40.46,40.51Zm1.61-1.11c0-.12-.38.76-.12.43C42,39.77,42.27,39.48,42.07,39.4Zm1.15-6.48c-1,1.79-2,3.69-2.16,5.4C41.8,38.29,42.63,34.23,43.22,32.92Zm1.39,0s-.13.14-.21.23C44.57,33.17,44.7,33,44.61,32.89Zm2.08-4.54c-.13.31-1,1.93-.11.52C46.92,28.54,47.31,27.57,46.69,28.35Zm.48-1.11c-.4.22-1,1.6-.7,1.47C46.59,28.39,46.9,27.78,47.17,27.24Zm5.58-9.53c.5-.91-.82.71-.78.86C52.31,18.59,52.57,18,52.75,17.71Z"
         id="path8" />
      <path
         class="cls-2"
         d="M29.39,103.21c-2.79-.61-8.13-.09-4.47-1.11a38.22,38.22,0,0,1-8.54-2.29C11.59,96.7,8.68,95,7.31,92.45c2,1.3-4.2-4.09-3.92-6.13,1.51,2.37,1,1,.24-.87a42.6,42.6,0,0,1-2-12.92c-.37-.28-.28,2.68-.09,3.27C.72,76,.9,74.37,1,76.4c-.62,3.44-.73-3.09,0-4.48-.57-1.81.52-9.87.8-9.44.41-.14-.57,5,1.41.63-2.85,13.6-.36,23.75,10.1,33.31a35.22,35.22,0,0,0,17.51,6.07c1.15.15-.44.28-1.3.29C28,102.74,30.5,103,29.39,103.21ZM1.77,66.05a1.18,1.18,0,0,0,.07-.59C1.73,65.53,1.73,66,1.77,66.05ZM4.44,85.29c.09.06-.14-.77-.3-.64S4.41,85.35,4.44,85.29Zm1.82,5.18C6.16,90.33,6,90,5.91,90S6.14,90.38,6.26,90.47Zm1.36.83c-.22-.45-.51-.64-.79-1.12C5.35,87.91,7.21,92.4,7.62,91.3Zm1.22,1.94c0-.11-.14-.24-.21-.24S8.68,93.24,8.84,93.24Zm4.68,3.68c-.53-.35-.78-.44-.88-.36C13.42,97.15,13.42,97,13.52,96.92Zm.83.58s-.53-.61-.81-.57C13.74,97.06,14.27,97.53,14.35,97.5Zm.36,1.07c.31-.08-1.1-.78-.24-.1C14.57,98.55,14.67,98.59,14.71,98.57Zm1.62-.23c-.18-.09-.7-.48-.84-.46A2.68,2.68,0,0,0,16.33,98.34ZM18,99.86a3.21,3.21,0,0,0-1.39-.57A4.25,4.25,0,0,0,18,99.86Zm1-.15c-.07-.19-.84-.36-1.12-.39C17.81,99.57,19.2,100,19,99.71ZM20.86,101c.15-.1-.75-.33-.79-.31C20.22,100.87,20.67,100.89,20.86,101Zm8.29,1.68c1.66-.07-1.17-.38-1.22-.15S28.86,102.63,29.15,102.66Z"
         id="path10" />
      <path
         class="cls-2"
         d="M6.15,48c.89-5.45,1.58-3.27,2.23-5.39-.12-.89,1.58-4.15,1.46-2.38-.37,1.06.47-.41.42-.56,2.06-4.53-1.33,1,1-3.25.77-1.4,1.38-2.67,1.29-.93C18.51,25.82,22,20,28,15.65c-1.35,2-.82,1.26.79-.06-.74,1.05-1.9,1.91-2.49,2.91.44.55,1.83-1.26,2.25-1.35-1.32,1.5-2.48,2.79-3.58,4.2-4.74,4.47-7.93,11.44-12,14.25-1.52,1.14-.42.94-.88,2.09-.46,2.17,1.83-3.31,2.07-2.33.29.1-3,5.4-2.64,3.76,0-.85-.35.26-.29.38.13.92-2.11,7.12-1.94,4.64.3-1.65-.22-1.21,1.34-3.92-.19-.81-3.2,5.47-2.27,5.34-.56,1.75-2.48,9.22-2.11,4.87C5,55.68,5,49.78,6.15,48ZM5.6,51.36c-.09-.1-.26.53-.24.64C5.45,51.94,5.7,51.51,5.6,51.36ZM24.29,21.19c-.18-.27-1.34,1.45-1.16,1.41S24.38,21.36,24.29,21.19Zm1.61-2a.83.83,0,0,0-.36.38C25.49,19.69,26.16,19.06,25.9,19.2Zm-1.13.87a16.18,16.18,0,0,0,1.17-1.29C25.66,18.67,24.76,19.59,24.77,20.07Zm0,0c-.85.93-.21.55.39.21C25.48,19.69,25,20.18,24.77,20.08ZM22.5,21.91c.33-.11,2.11-2.48.51-1.11C22.42,21.38,21.68,22.47,22.5,21.91Zm-1,1c-.82,1,1.94-.59,1.43-.8C22.25,22.59,22,22.29,21.52,22.93Zm-4,5.71c.59.33,1.09-.69,1-1.06C18.36,27.43,17.44,28.41,17.51,28.64Zm.43.46c-.14.24-.59.73-.16.57C17.84,29.78,18.72,28.61,17.94,29.1Zm-1,1.88c.54-.68.27-.63.6-1.24A1.42,1.42,0,0,0,16.91,31Zm.23.13c.3-.31.07-.34-.24-.11C16.53,31.68,17,31.21,17.14,31.11ZM12,35.73c0,.11.38-.33.11-.21C12.1,35.55,12,35.7,12,35.73Zm-5.67,13c.68-.3.46-1.61.75-2.37C6.78,46,6.15,48.55,6.36,48.68Z"
         id="path12" />
      <path
         class="cls-2"
         d="M29.51,14.38c-1.72,1.59-.39,0-1,.12s.71-1.48,1-1.4c.12.09-1.15,1.67-.08.73C31.92,11.25,38,3.51,40.6,3.09c-2.24,2-.55,2-5,4.85,1.24-.78.17-.07-.13.42,1.61-1.52-.88,2.3,1.44-.08,2.77-3.1-3.35,4.43-4.35,4.84-.46.17-1.81,2.7-2.49,2.09.14-.19,1.55-1,1-.91-1,.71.53-.85-.35-.18-.53.13-.45,0,.79-1.14C31,12.58,30.14,14,29.51,14.38Zm5.7-6.31c-.09.23.42-.08.37-.33S35.14,8.1,35.21,8.07ZM32.9,11.73c.63.61,2.05-1.38,2.49-2.13C34.7,10.17,33,11,32.9,11.73Z"
         id="path14" />
      <path
         class="cls-2"
         d="M2.34,62c-.2,1.62-.36,3,.65,1-.37-2.5,1.19-6.57,1.13-7.77.45-1.18.27-2.31-.15-.46C3,59.05,2.41,58.49,2.34,62Z"
         id="path16" />
      <path
         class="cls-2"
         d="M41.65,3.33c3.92-4.16,2.8-3.81,4.78.1-.85-.56-1.09-1.51-2-1.9,1.48-.3.62.73-.12.9-1.55.17-.13-.72-.73-.56C42.66,2,41.54,4.75,41.65,3.33Z"
         id="path18" />
      <path
         class="cls-2"
         d="M45.77,2.05c.59,1,3.71,3.48,4.13,2.78C48.16,4.18,47,1.61,45.77,2.05Z"
         id="path20" />
      <path
         class="cls-2"
         d="M46.14,48.72c.71.67,1,.16,2.19,1C47.81,48.32,42.68,46.3,46.14,48.72Z"
         id="path22" />
      <path
         class="cls-2"
         d="M56.32,59.81c-.61-.58-.78-1.46-1.56-1.66C54.93,59.24,58,63,56.32,59.81Z"
         id="path24" />
      <path
         class="cls-2"
         d="M57,12c2.53,5.22,3.23-5.73-2,2.12C60.24,7.75,59.74,15.41,57,12Z"
         id="path26" />
      <path
         class="cls-2"
         d="M2.52,82c-.64-1.33-1-3-.83-.33.06.22.16.44.17.32C1.9,81.16,3,83.37,2.52,82Z"
         id="path28" />
      <path
         class="cls-2"
         d="M49.54,5.42c-.49.07,1.17,1,1.42,1.06C51.69,6.57,49.34,4.38,49.54,5.42Z"
         id="path30" />
      <path
         class="cls-2"
         d="M53.48,7.37c-.2-.27,1.26,1,1.35.58C55.09,7.11,53.2,6.82,53.48,7.37Z"
         id="path32" />
      <path
         class="cls-2"
         d="M3,84.11c-.78-1.72-.48,1.75.34,1.39C3.4,85.37,3,84.37,3,84.11Z"
         id="path34" />
      <path
         class="cls-2"
         d="M5.47,49.66c-.4-1.72-1,.76-1,1.06C4.93,50,5.23,50.64,5.47,49.66Z"
         id="path36" />
      <path
         class="cls-2"
         d="M53.36,8.27c-.82.27,1.86,1.59.83.47C54.06,8.52,53.23,8.09,53.36,8.27Z"
         id="path38" />
      <path
         class="cls-2"
         d="M4.8,51.47c.24-1.26-1,1.58-.92,1.84A3.14,3.14,0,0,0,4.8,51.47Z"
         id="path40" />
      <path
         class="cls-2"
         d="M1.45,77.39c-.84-2.45-.33,1.08.08,1.16C1.81,79,1.5,77.27,1.45,77.39Z"
         id="path42" />
      <path
         class="cls-2"
         d="M52.81,9c.28,0,2.28,1.93,1.34.8C53.7,9.25,50.87,7.44,52.81,9Z"
         id="path44" />
      <path
         class="cls-2"
         d="M29.61,103.39c-1.56.17,1,.53.85.07C30.59,103.13,29.74,103.39,29.61,103.39Z"
         id="path46" />
      <path
         class="cls-2"
         d="M4.67,54.77c.17.11.71-1,.61-1.29S4.52,54.49,4.67,54.77Z"
         id="path48" />
      <path
         class="cls-2"
         d="M38.6,6.57c-.33.39-.42.72-.06.56S39.46,5.89,38.6,6.57Z"
         id="path50" />
      <path
         class="cls-2"
         d="M52,52.08c.31-.3-1-1-.94-.84A1.26,1.26,0,0,0,52,52.08Z"
         id="path52" />
      <path
         class="cls-2"
         d="M45.23,29.42c.22-.32.81-1.59.39-1.09C45.14,29.08,44,31.35,45.23,29.42Z"
         id="path54" />
      <path
         class="cls-2"
         d="M3.75,61.23c.25-.42.39-1.87.21-1.8A7.86,7.86,0,0,0,3.75,61.23Z"
         id="path56" />
      <path
         class="cls-2"
         d="M44.14.46c-.12-.19-.73.49-.42.73C44.24.82,44.31.56,44.14.46Z"
         id="path58" />
      <path
         class="cls-2"
         d="M41,47.8c-.33.24.64.63.78.47S41.91,48.06,41,47.8Z"
         id="path60" />
      <path
         class="cls-2"
         d="M27.47,15c0-.35-1.33,1.42-1.24,1.45A10.57,10.57,0,0,0,27.47,15Z"
         id="path62" />
      <path
         class="cls-2"
         d="M28.35,17.73c.43-.11.74-.87.93-1.11C29.21,16.55,28.17,17.72,28.35,17.73Z"
         id="path64" />
      <path
         class="cls-2"
         d="M31.23,102.74c-.13.35,1.69-.16.38-.14C31.27,102.62,31.21,102.69,31.23,102.74Z"
         id="path66" />
      <path
         class="cls-2"
         d="M55.91,11.72c0,.16,1,.89.94.69S56,11.57,55.91,11.72Z"
         id="path68" />
      <path
         class="cls-2"
         d="M4.38,56.5c.11,0,.45-1.06.32-1.11S4.26,56.53,4.38,56.5Z"
         id="path70" />
      <path
         class="cls-2"
         d="M47.5,24.28c-.14-.6-1.65,2.55-.35.47C47.27,24.57,47.39,24.62,47.5,24.28Z"
         id="path72" />
      <path
         class="cls-2"
         d="M4,57.62c.09,1.22.28,0,.16-.49C4,57,4,57.59,4,57.62Z"
         id="path74" />
      <path
         class="cls-2"
         d="M5.91,47c-.19.17-.39,1.1-.28,1S6.06,47,5.91,47Z"
         id="path76" />
      <path
         class="cls-2"
         d="M46.07,1.6c.25.24.49-.06.36-.19S45.78,1.31,46.07,1.6Z"
         id="path78" />
      <path
         class="cls-2"
         d="M50.08,19.65c.12-.37-.82.89-.46.62C49.59,20.31,50.44,19.7,50.08,19.65Z"
         id="path80" />
      <path
         class="cls-2"
         d="M43.65,98.64c-.1-.11-.48.14-.59.33C43.17,99,43.76,98.76,43.65,98.64Z"
         id="path82" />
      <path
         class="cls-2"
         d="M28.06,17.24c.45-.48.18-.5-.27,0C27.56,17.55,27.66,17.68,28.06,17.24Z"
         id="path84" />
      <path
         class="cls-2"
         d="M2.16,68.8c0,.76.31-.43.11-.49S2.15,68.67,2.16,68.8Z"
         id="path86" />
      <path
         class="cls-2"
         d="M41.66,99.5c0-.17-.72.12-1,.25C41,99.65,41.44,99.74,41.66,99.5Z"
         id="path88" />
      <path
         class="cls-2"
         d="M19.09,24.72c-.15-.24-1,1.2-.22.37A.67.67,0,0,0,19.09,24.72Z"
         id="path90" />
      <path
         class="cls-2"
         d="M56,11c-.41-.33-.63-.36-.21,0S56.51,11.41,56,11Z"
         id="path92" />
      <path
         class="cls-2"
         d="M47,4.11c-.1.09.6.56.69.61S47.09,4.07,47,4.11Z"
         id="path94" />
      <path
         class="cls-2"
         d="M24.33,103.14c-.38,0,.63.25.52.15S24.47,103.15,24.33,103.14Z"
         id="path96" />
      <path
         class="cls-2"
         d="M50.78,4.71a.27.27,0,0,0-.19-.17C50.13,4.53,50.85,5,50.78,4.71Z"
         id="path98" />
      <path
         class="cls-2"
         d="M35.4,101.83c0,.23,1.21-.21.27-.09A1,1,0,0,0,35.4,101.83Z"
         id="path100" />
      <path
         class="cls-2"
         d="M2.47,57c-.08-.15-.23.72-.14.68S2.58,57.14,2.47,57Z"
         id="path102" />
      <path
         class="cls-2"
         d="M24.7,17.74c0-.28-1.1,1.12-.27.38A1,1,0,0,0,24.7,17.74Z"
         id="path104" />
      <path
         class="cls-2"
         d="M31.82,10.39a.76.76,0,0,0-.27.24C31,11.26,32.07,10.4,31.82,10.39Z"
         id="path106" />
      <path
         class="cls-2"
         d="M59.15,71.6c-.06.07,0,.68.05.59S59.23,71.49,59.15,71.6Z"
         id="path108" />
      <path
         class="cls-2"
         d="M51.49,7.84c0-.06-.54-.53-.51-.38S51.52,8,51.49,7.84Z"
         id="path110" />
      <path
         class="cls-2"
         d="M44.07,0c-.22-.17-.43.4-.45.38C43.47.69,44.2,0,44.07,0Z"
         id="path112" />
      <path
         class="cls-2"
         d="M2,62.68c0,.5.06.48.14.23S2.1,62.21,2,62.68Z"
         id="path114" />
      <path
         class="cls-2"
         d="M38.91,42.11c-.06.17-.19.46-.11.57S38.91,42.25,38.91,42.11Z"
         id="path116" />
      <path
         class="cls-2"
         d="M42.75,46.67c0-.11-.28-.13-.39-.12A.33.33,0,0,0,42.75,46.67Z"
         id="path118" />
      <path
         class="cls-2"
         d="M48.61,2.09c0-.11-.17-.26-.23-.25S48.58,2.11,48.61,2.09Z"
         id="path120" />
      <path
         class="cls-2"
         d="M9.39,95.6s.1.12.15.19C10,95.92,9.31,95.39,9.39,95.6Z"
         id="path122" />
      <path
         class="cls-2"
         d="M3.46,82.13c.34.9.37.08.1-.07C3.38,82.08,3.21,81.73,3.46,82.13Z"
         id="path124" />
      <path
         class="cls-2"
         d="M18.61,26.35c0-.14-.26.13-.23.29A.35.35,0,0,0,18.61,26.35Z"
         id="path126" />
      <path
         class="cls-2"
         d="M44.07,30.71c-.16.06-.3.44-.42.62A1.14,1.14,0,0,0,44.07,30.71Z"
         id="path128" />
      <path
         class="cls-2"
         d="M11.46,97.46c-.23,0,.62.53.59.44A1.54,1.54,0,0,0,11.46,97.46Z"
         id="path130" />
      <path
         class="cls-2"
         d="M.06,69.52a.85.85,0,0,0,0,.63C.14,70.1.1,69.57.06,69.52Z"
         id="path132" />
      <path
         class="cls-2"
         d="M47,1.15c.17-.09-.66-.48-.15,0A.18.18,0,0,0,47,1.15Z"
         id="path134" />
      <path
         class="cls-2"
         d="M2.5,67.43a.67.67,0,0,0,.07-.18C2.54,66.65,2.33,67.56,2.5,67.43Z"
         id="path136" />
      <path
         class="cls-2"
         d="M41.62,2.84c0-.25-.5.28-.49.35S41.43,3,41.62,2.84Z"
         id="path138" />
      <path
         class="cls-2"
         d="M17.35,101c-.45-.62-2-1-.5-.11C17.9,101.41,18.58,101.31,17.35,101Z"
         id="path140" />
      <path
         class="cls-2"
         d="M19.09,25.21a1.8,1.8,0,0,0-.46.6A1.72,1.72,0,0,0,19.09,25.21Z"
         id="path142" />
      <path
         class="cls-2"
         d="M19.09,101.76c-.14.13.82.25.18,0C19.2,101.75,19.11,101.74,19.09,101.76Z"
         id="path144" />
      <path
         class="cls-2"
         d="M.94,67c-.09,0-.15.46-.11.65C.89,67.42,1,67.15.94,67Z"
         id="path146" />
      <path
         class="cls-2"
         d="M2.08,83.26a.9.9,0,0,0,.13.52C2.39,84,2.13,83.31,2.08,83.26Z"
         id="path148" />
      <path
         class="cls-2"
         d="M13.24,32.72c-.09,0-.24.28-.23.31S13.25,32.75,13.24,32.72Z"
         id="path150" />
      <path
         class="cls-2"
         d="M20,101.48c.37.14.26,0,.33,0S19.79,101.19,20,101.48Z"
         id="path152" />
      <path
         class="cls-2"
         d="M127.21,9.43c0-1.06,2.36,1.11,3.28,1.73-2.21-.42-2.71,1.75-.51,2.16-.77,1.07-6.22,5.8-7.3,9.11-3.05,3.23-6,11.07-7.59,12.43-1.5,2.13-2.7,14.2-4.37,10,4.52,2-.86,1.42,3.69,2.19.63.25,2.22.94,1.83,1.2-.35-.29-3.61-1.11-1.53-.12,2.27,1.12,8.26,4.79,3.55,1.6,1,.12,2.66,1.37,1.52,0,1.39-.11.71,1.43,3,2.94.19.28,1.27,1.13.53.24-.33-.26-.79-1-.08-.39,2.61,3.24,6,5.14,6.83,9.82,6.64,14.59-.77,31.92-14.58,38.27-.58.88-4.75,2.18-3.11,1-1.42.38-.5-.23-1.28-.17-1,0,1.23-.32.13-.49-3.87.42.56-.32,2-1.17,1.74-.51-.08.24-.45.38.19.29,3.07-1.14,1.56-.63,1.66-.48,4.74-4.49,4.81-2.72,1.54-.55.21.25,1.88-1.28a44.23,44.23,0,0,0,8.43-14.29c1.57-5.5,2.26-11.61-.86-18-.79-2.35.3-.63.8-.39-.33-1.77-2.05-3.34-3.06-5.21.14-.74-1.3-1.77-1.76-2.37.26.71,2,2.5,1.54,2.88a16.28,16.28,0,0,0-5.94-6c-8.54-7.25-12.73-2.43-10.27-8.51.34-2.38,5.69-17.33,5.09-12.29.06,1.7,1.42.83,1.21,0,2.7-6.1,3.3-8.71,6.56-12.44.19-1.55,5.54-6.55,5-5.47,1.54-.75-5.25,6.08-2.17,3C129.37,12.65,131,12.26,127.21,9.43Zm-12.67,91.36c-.53,0-1,.43-1.37.66C113.52,101.38,114.72,101,114.54,100.79Zm2.68-2c-.3.2-1,.5-1,.64C116.36,99.68,117.41,98.92,117.22,98.83Zm3.91-2.65c-.17,0-.27.23-.41.33C120.89,96.48,121.19,96.21,121.13,96.18Zm9.55-28.9c0,.89.2,2.4.58,2.43A6,6,0,0,0,130.68,67.28ZM130.09,65c-.14-.09,0,.43.07.54-.1-.22-.29-.34,0,.32C130.53,67.14,130.42,65.06,130.09,65Zm-.5-1.56c0,.52-.41.14-.09.67C130,64.12,129.75,63.25,129.59,63.41Zm-2-5.36c-.09.16.9,1.11,1,1.22C128.41,58.81,127.76,58,127.64,58.05Zm-5.31-5.12a17.1,17.1,0,0,0,1.37,1.3A3.46,3.46,0,0,0,122.33,52.93Zm-11.4-6.41h-.42C109.82,46.52,111.42,46.9,110.93,46.52Zm-.36-.8c.15.51.69,1.21-.08.06C111,46.1,111.09,45.8,110.57,45.72Zm.69-1c0-.36-.15.32-.11.37S111.23,44.86,111.26,44.75Zm-.85-1.2c-.08-.23-.4.78-.38,1S110.43,43.7,110.41,43.55Zm.74-1.82c-.32.06-.65,1.29-.39,1.38S111.27,41.61,111.15,41.73Zm.74-1.22c0-.06-.06,0-.11.15C111.56,41.91,112.17,40.47,111.89,40.51Zm1.61-1.11c0-.12-.38.76-.13.43C113.42,39.77,113.7,39.48,113.5,39.4Zm1.14-6.48c-1,1.79-2,3.69-2.15,5.4C113.23,38.29,114.05,34.23,114.64,32.92Zm1.39,0s-.13.14-.2.23C116,33.17,116.12,33,116,32.89Zm2.08-4.54c-.13.31-1,1.93-.1.52C118.35,28.54,118.73,27.57,118.11,28.35Zm.49-1.11c-.4.22-1,1.6-.71,1.47C118,28.39,118.33,27.78,118.6,27.24Zm5.57-9.53c.5-.91-.82.71-.78.86C123.73,18.59,124,18,124.17,17.71Z"
         id="path154" />
      <path
         class="cls-2"
         d="M100.81,103.21c-2.79-.61-8.13-.09-4.47-1.11a38.36,38.36,0,0,1-8.54-2.29C83,96.7,80.1,95,78.74,92.45c2,1.3-4.21-4.09-3.93-6.13,1.51,2.37,1,1,.24-.87a42.6,42.6,0,0,1-2-12.92c-.51,0,0,3.29-.43,3.66,0,.13-.34-1.54-.35-.82,0,4.91-1-1.19.1-3.45-.58-1.81.51-9.87.79-9.44.41-.14-.56,5,1.42.63-2.86,13.6-.36,23.75,10.1,33.31a35.19,35.19,0,0,0,17.51,6.07c1.14.15-.45.28-1.3.29C99.37,102.74,101.92,103,100.81,103.21ZM73.2,66.05a1.16,1.16,0,0,0,.06-.59A.84.84,0,0,0,73.2,66.05Zm2.66,19.24c.09.06-.14-.77-.3-.64S75.83,85.35,75.86,85.29Zm1.83,5.18c-.11-.14-.23-.44-.35-.47S77.57,90.38,77.69,90.47Zm1.36.83c-.22-.45-.52-.64-.79-1.12C76.78,87.91,78.63,92.4,79.05,91.3Zm1.22,1.94c0-.11-.15-.24-.21-.24S80.11,93.24,80.27,93.24Zm4.67,3.68c-.52-.35-.78-.44-.88-.36C84.84,97.15,84.85,97,84.94,96.92Zm.84.58s-.54-.61-.81-.57C85.16,97.06,85.69,97.53,85.78,97.5Zm.36,1.07c.31-.08-1.1-.78-.24-.1C86,98.55,86.09,98.59,86.14,98.57Zm1.61-.23c-.17-.09-.7-.48-.84-.46A2.68,2.68,0,0,0,87.75,98.34Zm1.71,1.52a3.24,3.24,0,0,0-1.4-.57A4.29,4.29,0,0,0,89.46,99.86Zm1-.15c-.06-.19-.84-.36-1.11-.39C89.24,99.57,90.62,100,90.43,99.71ZM92.28,101c.15-.1-.75-.33-.79-.31C91.64,100.87,92.09,100.89,92.28,101Zm8.3,1.68c1.65-.07-1.17-.38-1.22-.15S100.28,102.63,100.58,102.66Z"
         id="path156" />
      <path
         class="cls-2"
         d="M77.58,48c1.13-6.41,1.49-2,2.78-7.32,1.41-2.61.55,1.29,1.32-1,.86-1.73,1.34-3.48-.25-.77.4-1.2,1.51-2.63,1.83-3.67s1.26-.7.46.21c1.19-.42,1.63-3,2.45-4,.57-1,8-10.19,4.77-6.93a34,34,0,0,1,8.3-8.73c-1.84,3.1,2.92-2.57-1.5,2.7.26.73,3.12-2.42,1.84-.89-6.26,6-10.28,14.45-15.29,17.89-1.17,2.16-1.17,3.7-.08,1.77.4-1.27,2.39-3.22,1-.91-2.57,3.78-2.08,2.34-3.52,6.92-.72,1.27-1.2,2.72-.87.49.34-1.68-.08-1.08,1.54-4-2.49,1.72-4.41,14.66-4.53,11,0-1.07-.35.38-.26.52C76.17,55.2,76.74,49.12,77.58,48ZM77,51.36c-.08-.1-.26.53-.23.64C76.88,51.94,77.12,51.51,77,51.36ZM95.71,21.19c-.18-.27-1.33,1.45-1.16,1.41S95.8,21.36,95.71,21.19Zm1.61-2a.87.87,0,0,0-.35.38C96.91,19.69,97.58,19.06,97.32,19.2Zm-1.13.87a16.28,16.28,0,0,0,1.18-1.29C97.08,18.67,96.19,19.59,96.19,20.07Zm0,0c-.84.93-.21.55.4.21C96.9,19.69,96.38,20.18,96.19,20.08Zm-2.27,1.83c.34-.11,2.12-2.48.52-1.11C93.84,21.38,93.1,22.47,93.92,21.91Zm-1,1c-.82,1,2-.59,1.43-.8C93.67,22.59,93.43,22.29,92.94,22.93Zm-4,5.71c.59.33,1.1-.69,1-1.06C89.79,27.43,88.87,28.41,88.93,28.64Zm.44.46c-.14.24-.6.73-.16.57C89.26,29.78,90.15,28.61,89.37,29.1Zm-1,1.88c.55-.68.27-.63.61-1.24A1.43,1.43,0,0,0,88.33,31Zm.23.13c.31-.31.07-.34-.23-.11C88,31.68,88.39,31.21,88.56,31.11Zm-5.1,4.62c0,.11.38-.33.11-.21C83.52,35.55,83.44,35.7,83.46,35.73Zm-5.68,13c.68-.3.46-1.61.76-2.37C78.21,46,77.58,48.55,77.78,48.68Z"
         id="path158" />
      <path
         class="cls-2"
         d="M100.93,14.38c-1.71,1.59-.39,0-1,.12s.71-1.48,1-1.4c-1.21,2.75,2.51-2.8,3.46-3.24,2-2.29,5.23-6.12,8-7-.66.28-2.83,2.39-1.75,1.81,2.74-2.3-1.64,1.42-.56,1.24-.92,1.15-2.09.48-3.13,2.08,1.55-1.14-.93,1.06.3.15,0,.83-.44,1.8,2-1-2.17,2.79-5.28,6.81-7.88,8.11.14-.19,1.56-1,1-.91-1,.71.53-.85-.36-.18-.52.13-.45,0,.79-1.14C102.4,12.58,101.56,14,100.93,14.38Zm5.7-6.31c-.09.23.43-.08.38-.33S106.56,8.1,106.63,8.07Zm-2.3,3.66c.62.61,2-1.38,2.48-2.13C106.12,10.17,104.42,11,104.33,11.73Z"
         id="path160" />
      <path
         class="cls-2"
         d="M73.77,62c-.2,1.62-.37,3,.65,1-.37-2.5,1.19-6.57,1.13-7.77.44-1.18.27-2.31-.16-.46C74.43,59.05,73.84,58.49,73.77,62Z"
         id="path162" />
      <path
         class="cls-2"
         d="M113.07,3.33c3.93-4.16,2.8-3.81,4.79.1-.86-.56-1.1-1.51-2-1.9,1.47-.3.62.73-.13.9-1.55.17-.12-.72-.72-.56C114.09,2,113,4.75,113.07,3.33Z"
         id="path164" />
      <path
         class="cls-2"
         d="M117.2,2.05c.59,1,3.7,3.48,4.12,2.78C119.58,4.18,118.41,1.61,117.2,2.05Z"
         id="path166" />
      <path
         class="cls-2"
         d="M117.57,48.72c.7.67,1,.16,2.18,1C119.23,48.32,114.1,46.3,117.57,48.72Z"
         id="path168" />
      <path
         class="cls-2"
         d="M127.74,59.81c-.6-.58-.78-1.46-1.55-1.66C126.36,59.24,129.43,63,127.74,59.81Z"
         id="path170" />
      <path
         class="cls-2"
         d="M128.43,12c3.42,4.48,2.57-5.42-2,2.12C131.67,7.75,131.16,15.41,128.43,12Z"
         id="path172" />
      <path
         class="cls-2"
         d="M73.94,82c-.64-1.33-1-3-.82-.33.06.22.16.44.17.32C73.33,81.16,74.41,83.37,73.94,82Z"
         id="path174" />
      <path
         class="cls-2"
         d="M121,5.42c-.5.07,1.16,1,1.41,1.06C123.12,6.57,120.77,4.38,121,5.42Z"
         id="path176" />
      <path
         class="cls-2"
         d="M124.9,7.37c-.2-.27,1.27,1,1.36.58C126.51,7.11,124.62,6.82,124.9,7.37Z"
         id="path178" />
      <path
         class="cls-2"
         d="M74.4,84.11c-.77-1.72-.47,1.75.35,1.39C74.82,85.37,74.38,84.37,74.4,84.11Z"
         id="path180" />
      <path
         class="cls-2"
         d="M76.9,49.66c-.41-1.72-1,.76-1.06,1.06C76.35,50,76.65,50.64,76.9,49.66Z"
         id="path182" />
      <path
         class="cls-2"
         d="M124.78,8.27c-.82.27,1.86,1.59.83.47C125.48,8.52,124.66,8.09,124.78,8.27Z"
         id="path184" />
      <path
         class="cls-2"
         d="M76.23,51.47c.24-1.26-1,1.58-.93,1.84A3.14,3.14,0,0,0,76.23,51.47Z"
         id="path186" />
      <path
         class="cls-2"
         d="M72.88,77.39c-.84-2.45-.33,1.08.08,1.16C73.23,79,72.92,77.27,72.88,77.39Z"
         id="path188" />
      <path
         class="cls-2"
         d="M124.24,9c.28,0,2.27,1.93,1.33.8C125.13,9.25,122.29,7.44,124.24,9Z"
         id="path190" />
      <path
         class="cls-2"
         d="M101,103.39c-1.56.17,1,.53.86.07C102,103.13,101.16,103.39,101,103.39Z"
         id="path192" />
      <path
         class="cls-2"
         d="M76.1,54.77c.17.11.71-1,.6-1.29S76,54.49,76.1,54.77Z"
         id="path194" />
      <path
         class="cls-2"
         d="M110,6.57c-.33.39-.42.72-.07.56C110.48,6.87,110.89,5.89,110,6.57Z"
         id="path196" />
      <path
         class="cls-2"
         d="M123.45,52.08c.32-.3-1-1-.94-.84A1.28,1.28,0,0,0,123.45,52.08Z"
         id="path198" />
      <path
         class="cls-2"
         d="M116.66,29.42c.21-.32.8-1.59.38-1.09C116.57,29.08,115.46,31.35,116.66,29.42Z"
         id="path200" />
      <path
         class="cls-2"
         d="M75.17,61.23c.25-.42.4-1.87.22-1.8S75.2,61.09,75.17,61.23Z"
         id="path202" />
      <path
         class="cls-2"
         d="M115.57.46c-.12-.19-.74.49-.43.73C115.66.82,115.74.56,115.57.46Z"
         id="path204" />
      <path
         class="cls-2"
         d="M112.42,47.8c-.34.24.64.63.78.47S113.33,48.06,112.42,47.8Z"
         id="path206" />
      <path
         class="cls-2"
         d="M98.9,15c0-.35-1.33,1.42-1.25,1.45A10,10,0,0,0,98.9,15Z"
         id="path208" />
      <path
         class="cls-2"
         d="M99.77,17.73c.44-.11.74-.87.93-1.11C100.64,16.55,99.59,17.72,99.77,17.73Z"
         id="path210" />
      <path
         class="cls-2"
         d="M102.65,102.74c-.13.35,1.7-.16.38-.14C102.7,102.62,102.64,102.69,102.65,102.74Z"
         id="path212" />
      <path
         class="cls-2"
         d="M127.34,11.72c0,.16,1,.89.94.69S127.4,11.57,127.34,11.72Z"
         id="path214" />
      <path
         class="cls-2"
         d="M75.8,56.5c.12,0,.45-1.06.32-1.11S75.69,56.53,75.8,56.5Z"
         id="path216" />
      <path
         class="cls-2"
         d="M118.93,24.28c-.15-.6-1.66,2.55-.35.47C118.7,24.57,118.81,24.62,118.93,24.28Z"
         id="path218" />
      <path
         class="cls-2"
         d="M75.41,57.62c.08,1.22.27,0,.15-.49C75.42,57,75.4,57.59,75.41,57.62Z"
         id="path220" />
      <path
         class="cls-2"
         d="M77.33,47c-.18.17-.38,1.1-.28,1S77.48,47,77.33,47Z"
         id="path222" />
      <path
         class="cls-2"
         d="M117.5,1.6c.24.24.48-.06.35-.19S117.2,1.31,117.5,1.6Z"
         id="path224" />
      <path
         class="cls-2"
         d="M121.5,19.65c.13-.37-.82.89-.45.62C121,20.32,121.86,19.7,121.5,19.65Z"
         id="path226" />
      <path
         class="cls-2"
         d="M115.08,98.64c-.11-.11-.49.14-.6.33C114.59,99,115.18,98.76,115.08,98.64Z"
         id="path228" />
      <path
         class="cls-2"
         d="M99.49,17.24c.44-.48.17-.5-.28,0C99,17.55,99.09,17.68,99.49,17.24Z"
         id="path230" />
      <path
         class="cls-2"
         d="M73.58,68.8c0,.76.31-.43.12-.49S73.58,68.67,73.58,68.8Z"
         id="path232" />
      <path
         class="cls-2"
         d="M113.08,99.5c0-.17-.72.12-1,.25C112.44,99.65,112.87,99.74,113.08,99.5Z"
         id="path234" />
      <path
         class="cls-2"
         d="M90.51,24.72c-.14-.24-1,1.2-.22.37C90.49,24.88,90.49,24.81,90.51,24.72Z"
         id="path236" />
      <path
         class="cls-2"
         d="M127.4,11c-.42-.33-.64-.36-.21,0S127.94,11.41,127.4,11Z"
         id="path238" />
      <path
         class="cls-2"
         d="M118.46,4.11c-.1.09.61.56.69.61S118.51,4.07,118.46,4.11Z"
         id="path240" />
      <path
         class="cls-2"
         d="M95.76,103.14c-.38,0,.63.25.51.15S95.9,103.15,95.76,103.14Z"
         id="path242" />
      <path
         class="cls-2"
         d="M122.2,4.71c0-.06-.11-.16-.18-.17C121.55,4.53,122.27,5,122.2,4.71Z"
         id="path244" />
      <path
         class="cls-2"
         d="M106.83,101.83c0,.23,1.2-.21.26-.09A.93.93,0,0,0,106.83,101.83Z"
         id="path246" />
      <path
         class="cls-2"
         d="M73.9,57c-.08-.15-.23.72-.14.68S74,57.14,73.9,57Z"
         id="path248" />
      <path
         class="cls-2"
         d="M96.13,17.74c0-.28-1.1,1.12-.28.38A1,1,0,0,0,96.13,17.74Z"
         id="path250" />
      <path
         class="cls-2"
         d="M103.25,10.39a.77.77,0,0,0-.28.24C102.46,11.26,103.5,10.4,103.25,10.39Z"
         id="path252" />
      <path
         class="cls-2"
         d="M130.58,71.6c-.07.07,0,.68,0,.59S130.66,71.49,130.58,71.6Z"
         id="path254" />
      <path
         class="cls-2"
         d="M122.92,7.84c0-.06-.55-.53-.52-.38S123,8,122.92,7.84Z"
         id="path256" />
      <path
         class="cls-2"
         d="M115.49,0c-.22-.17-.42.4-.44.38C114.89.69,115.63,0,115.49,0Z"
         id="path258" />
      <path
         class="cls-2"
         d="M73.43,62.68c-.05.5.07.48.14.23S73.53,62.21,73.43,62.68Z"
         id="path260" />
      <path
         class="cls-2"
         d="M110.34,42.11c-.07.17-.19.46-.12.57S110.34,42.25,110.34,42.11Z"
         id="path262" />
      <path
         class="cls-2"
         d="M114.17,46.67c0-.11-.28-.13-.38-.12A.32.32,0,0,0,114.17,46.67Z"
         id="path264" />
      <path
         class="cls-2"
         d="M120,2.09c.06-.11-.17-.26-.23-.25S120,2.11,120,2.09Z"
         id="path266" />
      <path
         class="cls-2"
         d="M80.82,95.6s.09.12.14.19C81.42,95.92,80.74,95.39,80.82,95.6Z"
         id="path268" />
      <path
         class="cls-2"
         d="M74.88,82.13c.35.9.38.08.11-.07C74.81,82.08,74.63,81.73,74.88,82.13Z"
         id="path270" />
      <path
         class="cls-2"
         d="M90,26.35c0-.14-.26.13-.24.29A.38.38,0,0,0,90,26.35Z"
         id="path272" />
      <path
         class="cls-2"
         d="M115.49,30.71c-.16.06-.29.44-.41.62A1.17,1.17,0,0,0,115.49,30.71Z"
         id="path274" />
      <path
         class="cls-2"
         d="M82.88,97.46c-.23,0,.62.53.59.44A1.41,1.41,0,0,0,82.88,97.46Z"
         id="path276" />
      <path
         class="cls-2"
         d="M71.48,69.52a.85.85,0,0,0,0,.63A1.22,1.22,0,0,0,71.48,69.52Z"
         id="path278" />
      <path
         class="cls-2"
         d="M118.46,1.15c.16-.09-.66-.48-.16,0A.2.2,0,0,0,118.46,1.15Z"
         id="path280" />
      <path
         class="cls-2"
         d="M73.93,67.43a.67.67,0,0,0,.07-.18C74,66.65,73.76,67.56,73.93,67.43Z"
         id="path282" />
      <path
         class="cls-2"
         d="M113,2.84c0-.25-.5.28-.49.35S112.86,3,113,2.84Z"
         id="path284" />
      <path
         class="cls-2"
         d="M88.78,101c-.45-.62-2-1-.51-.11C89.32,101.41,90,101.31,88.78,101Z"
         id="path286" />
      <path
         class="cls-2"
         d="M90.52,25.21a1.7,1.7,0,0,0-.47.6A1.74,1.74,0,0,0,90.52,25.21Z"
         id="path288" />
      <path
         class="cls-2"
         d="M90.51,101.76c-.13.13.83.25.18,0C90.62,101.75,90.53,101.74,90.51,101.76Z"
         id="path290" />
      <path
         class="cls-2"
         d="M72.36,67c-.08,0-.14.46-.1.65C72.31,67.42,72.43,67.15,72.36,67Z"
         id="path292" />
      <path
         class="cls-2"
         d="M73.51,83.26a.77.77,0,0,0,.13.52C73.81,84,73.55,83.31,73.51,83.26Z"
         id="path294" />
      <path
         class="cls-2"
         d="M84.66,32.72c-.09,0-.23.28-.23.31S84.67,32.75,84.66,32.72Z"
         id="path296" />
      <path
         class="cls-2"
         d="M91.44,101.48c.38.14.27,0,.34,0S91.21,101.19,91.44,101.48Z"
         id="path298" />
    </g>
  </g>
</svg>
