<?xml version="1.0" encoding="UTF-8" standalone="no"?>
<svg
   version="1.1"
   x="0px"
   y="0px"
   viewBox="0 0 300 300"
   xml:space="preserve"
   id="svg67646"
   width="300"
   height="300"
   xmlns="http://www.w3.org/2000/svg"
   xmlns:svg="http://www.w3.org/2000/svg"><defs
     id="defs67650" /><path
     fill="#bab9bb"
     d="m 20.605012,180.66902 c -3.049883,44.73729 31.80837,83.67866 77.705524,86.80763 15.170464,1.03421 29.633224,-2.03891 42.366624,-8.13938 11.78765,7.77202 25.69953,12.77965 40.86999,13.81387 45.89715,3.12896 85.71787,-30.72132 88.76775,-75.4586 2.06366,-30.27099 -13.26291,-57.84487 -37.58649,-73.50887 0.69794,-3.42025 1.25565,-6.89167 1.49902,-10.46153 C 237.27731,68.984861 202.41905,30.043449 156.5219,26.914495 110.62475,23.785541 70.804052,57.63585 67.75417,102.37312 c -0.243344,3.5695 -0.161923,7.08454 0.06535,10.56817 -26.224498,12.21986 -45.151339,37.4567 -47.215009,67.7277 z m 241.386208,16.45606 c -2.74481,40.26243 -38.58467,70.72875 -79.89097,67.91277 -12.15301,-0.8285 -23.40419,-4.50481 -33.22416,-10.22878 21.44838,-13.40432 36.38431,-36.12605 38.20209,-62.7901 0.24335,-3.56948 0.1619,-7.08455 -0.0653,-10.56818 20.53722,-9.57119 36.52407,-27.14296 43.50751,-48.86047 20.50186,14.33031 33.25979,38.29028 31.47056,64.53568 z M 112.96635,180.27756 c 9.82202,4.95796 20.79197,8.10548 32.49503,8.90332 11.70308,0.79784 22.99917,-0.83188 33.4027,-4.41086 0.0547,2.20889 0.045,4.43334 -0.10825,6.68065 -1.72204,25.25974 -16.47632,46.65571 -37.43066,58.39921 -19.16638,-14.48286 -30.88058,-37.68045 -29.15863,-62.93882 0.15317,-2.24748 0.44541,-4.45269 0.79941,-6.63353 z m 36.631,-51.76525 c 15.24876,11.5213 25.76587,28.56593 28.56662,47.77715 -9.93952,3.74723 -20.82137,5.55269 -32.14964,4.78041 -11.32825,-0.77229 -21.8644,-4.03778 -31.20305,-9.10448 5.38166,-18.64969 18.11475,-34.10743 34.78604,-43.45264 z m -42.04726,38.96407 C 91.083601,155.96474 79.609099,138.25818 76.671081,118.1093 c 9.93966,-3.74904 20.821506,-5.55453 32.149769,-4.78225 12.15302,0.82851 23.4042,4.5048 33.22418,10.22878 -16.16691,10.10526 -28.5731,25.5089 -34.49504,43.92193 z m 50.20202,-42.85116 c 10.50595,-4.33833 22.15242,-6.45357 34.30499,-5.62509 11.32779,0.77225 21.86442,4.03778 31.20307,9.10449 -5.64353,19.56151 -19.41135,35.54722 -37.29322,44.71955 -3.36778,-19.04962 -13.56888,-35.99447 -28.21474,-48.20034 z M 76.079887,102.94257 c 2.744817,-40.262427 38.584663,-70.72874 79.890943,-67.91276 41.30628,2.815979 72.67978,37.864438 69.93496,78.12686 -0.15317,2.24749 -0.4454,4.4527 -0.7994,6.63354 -9.82202,-4.95796 -20.79197,-8.10549 -32.49503,-8.90332 -15.17048,-1.03422 -29.63325,2.03894 -42.36662,8.13938 -11.78767,-7.77203 -25.69954,-12.77966 -40.87002,-13.81388 -11.703055,-0.79784 -22.999154,0.83188 -33.402688,4.41086 -0.05473,-2.20888 -0.04495,-4.43335 0.108253,-6.68066 z m -7.211677,18.63065 c 3.971563,22.46248 17.42548,42.04507 36.47385,54.31305 -0.69795,3.42024 -1.25566,6.89168 -1.49902,10.46153 -1.81787,26.66543 9.89681,51.20171 29.32705,67.39378 -10.50594,4.33837 -22.15243,6.45358 -34.304987,5.6251 C 57.558822,256.5507 26.185324,221.50225 28.93014,181.23983 30.719215,154.99672 46.610887,132.98944 68.868035,121.57228 Z"
     id="path67640"
     style="stroke-width:2.60744" /></svg>
