<?xml version="1.0" encoding="UTF-8" standalone="no"?>
<svg
   version="1.1"
   viewBox="0 0 640 638"
   width="640.0pt"
   height="638.0pt"
   id="svg21246"
   xmlns="http://www.w3.org/2000/svg"
   xmlns:svg="http://www.w3.org/2000/svg">
  <defs
     id="defs21250" />
  <path
     d="M 305.08 47.75 C 315.69 47.75 326.31 47.73 336.92 47.77 C 339.11 57.77 341.37 67.75 343.56 77.75 C 350.37 79.01 357.09 80.52 363.57 83.01 C 370.53 75.41 377.65 67.96 384.70 60.44 C 393.77 65.75 402.84 71.07 411.93 76.35 C 408.85 86.32 405.74 96.28 402.62 106.23 C 407.32 110.42 411.79 114.81 415.94 119.55 C 425.67 116.47 435.40 113.35 445.13 110.25 C 450.43 119.36 455.81 128.42 461.05 137.56 C 453.49 144.57 446.03 151.68 438.52 158.75 C 440.37 165.57 441.92 172.47 443.78 179.29 C 453.73 181.54 463.70 183.68 473.64 185.98 C 473.61 196.59 473.62 207.20 473.63 217.81 C 463.05 220.27 452.45 222.68 441.86 225.11 C 440.94 228.43 439.94 231.72 438.89 234.99 C 437.85 238.27 437.11 241.61 436.43 244.98 C 441.72 249.81 446.76 254.87 452.18 259.54 C 454.52 261.72 456.75 264.01 458.96 266.31 C 453.73 275.62 448.44 284.89 443.07 294.12 C 433.38 291.03 423.69 287.96 413.99 284.89 C 409.43 289.19 404.66 293.16 400.54 297.92 C 403.71 307.71 406.76 317.54 409.95 327.32 C 400.94 332.70 391.81 337.88 382.78 343.23 C 377.82 338.18 373.04 332.97 368.20 327.80 C 366.14 325.63 364.17 323.00 361.65 321.35 C 360.48 320.92 358.95 321.40 357.74 321.57 C 352.08 322.82 346.44 324.19 340.91 325.91 C 338.61 335.86 336.61 345.87 334.16 355.79 C 323.55 355.69 312.95 355.78 302.35 355.72 C 300.13 345.86 297.97 335.98 295.79 326.11 C 289.14 324.36 282.56 322.39 275.91 320.63 C 268.78 328.10 261.72 335.65 254.66 343.19 C 245.48 338.04 236.40 332.69 227.37 327.28 C 230.50 317.35 233.67 307.42 236.62 297.44 C 231.91 293.31 227.53 289.00 223.43 284.26 C 213.61 287.16 203.94 290.53 194.13 293.44 C 188.90 284.40 183.57 275.42 178.35 266.37 C 180.51 264.04 182.71 261.75 185.03 259.57 C 190.51 254.95 195.54 249.87 200.81 245.02 C 199.76 241.66 198.61 238.33 197.59 234.97 C 196.59 231.51 195.98 227.98 195.41 224.43 C 185.50 222.18 175.57 220.04 165.65 217.85 C 165.60 207.21 165.62 196.56 165.63 185.92 C 175.57 183.72 185.51 181.53 195.45 179.35 C 196.68 172.46 197.97 165.68 200.70 159.21 C 193.17 152.23 185.74 145.14 178.24 138.13 C 183.54 128.84 188.89 119.58 194.13 110.26 C 204.13 113.07 214.09 116.04 224.09 118.85 C 228.02 113.83 231.71 108.93 237.23 105.51 C 234.25 95.77 231.10 86.07 228.06 76.34 C 237.14 71.08 246.18 65.75 255.23 60.44 C 262.31 67.95 269.41 75.45 276.41 83.03 C 283.64 79.95 290.53 78.06 298.42 77.59 C 300.62 67.64 302.88 57.70 305.08 47.75 Z"
     fill="#43b763"
     id="path21228"
     style="fill:#64c33d;fill-opacity:0.45490196" />
  <path
     d="M 312.97 151.88 C 321.71 150.99 330.24 151.19 338.48 154.54 C 357.42 161.98 370.22 181.78 370.06 202.00 C 369.81 214.27 365.06 226.27 356.76 235.32 C 352.17 235.10 347.59 234.88 343.00 234.97 C 322.52 235.21 301.99 234.61 281.52 235.29 C 270.78 223.16 267.44 206.74 269.86 190.98 C 271.18 182.90 274.81 175.31 280.09 169.08 C 288.39 159.40 300.36 153.38 312.97 151.88 Z"
     fill="#ffffff"
     id="path21230" />
  <path
     d="M 99.00 234.97 C 131.86 235.01 164.73 235.03 197.59 234.97 C 198.61 238.33 199.76 241.66 200.81 245.02 C 195.54 249.87 190.51 254.95 185.03 259.57 C 159.52 259.42 134.01 259.54 108.50 259.50 C 108.50 351.83 108.50 444.17 108.50 536.50 C 249.46 536.50 390.42 536.50 531.38 536.49 C 531.38 444.16 531.38 351.84 531.38 259.51 C 504.99 259.52 478.57 259.46 452.18 259.54 C 446.76 254.87 441.72 249.81 436.43 244.98 C 437.11 241.61 437.85 238.27 438.89 234.99 C 469.59 235.01 500.30 235.00 531.00 235.00 C 535.86 235.03 540.93 234.68 545.73 235.43 C 550.97 236.33 555.44 240.64 556.13 245.97 C 556.81 250.55 556.46 255.38 556.48 260.00 C 556.48 355.33 556.49 450.67 556.48 546.00 C 556.63 551.05 556.40 556.09 556.35 561.14 C 551.23 561.20 546.12 561.34 541.00 561.25 C 397.33 561.24 253.67 561.25 110.00 561.25 C 100.92 561.22 91.84 561.34 82.77 561.16 C 82.70 555.77 82.55 550.39 82.66 545.00 C 82.63 449.34 82.68 353.66 82.63 258.00 C 82.75 252.21 81.70 244.53 85.84 239.87 C 89.22 235.72 93.93 235.01 99.00 234.97 Z"
     fill="#dfe1e0"
     id="path21232" />
  <path
     d="M 281.52 235.29 C 301.99 234.61 322.52 235.21 343.00 234.97 C 347.59 234.88 352.17 235.10 356.76 235.32 C 345.43 248.52 327.06 254.89 310.00 251.27 C 298.85 249.29 289.19 243.53 281.52 235.29 Z"
     fill="#dfe1e0"
     id="path21234" />
  <path
     d="M 108.50 259.50 C 134.01 259.54 159.52 259.42 185.03 259.57 C 182.71 261.75 180.51 264.04 178.35 266.37 C 183.57 275.42 188.90 284.40 194.13 293.44 C 203.94 290.53 213.61 287.16 223.43 284.26 C 227.53 289.00 231.91 293.31 236.62 297.44 C 233.67 307.42 230.50 317.35 227.37 327.28 C 236.40 332.69 245.48 338.04 254.66 343.19 C 261.72 335.65 268.78 328.10 275.91 320.63 C 282.56 322.39 289.14 324.36 295.79 326.11 C 297.97 335.98 300.13 345.86 302.35 355.72 C 312.95 355.78 323.55 355.69 334.16 355.79 C 336.61 345.87 338.61 335.86 340.91 325.91 C 346.44 324.19 352.08 322.82 357.74 321.57 C 358.95 321.40 360.48 320.92 361.65 321.35 C 364.17 323.00 366.14 325.63 368.20 327.80 C 373.04 332.97 377.82 338.18 382.78 343.23 C 391.81 337.88 400.94 332.70 409.95 327.32 C 406.76 317.54 403.71 307.71 400.54 297.92 C 404.66 293.16 409.43 289.19 413.99 284.89 C 423.69 287.96 433.38 291.03 443.07 294.12 C 448.44 284.89 453.73 275.62 458.96 266.31 C 456.75 264.01 454.52 261.72 452.18 259.54 C 478.57 259.46 504.99 259.52 531.38 259.51 C 531.38 351.84 531.38 444.16 531.38 536.49 C 390.42 536.50 249.46 536.50 108.50 536.50 C 108.50 444.17 108.50 351.83 108.50 259.50 Z"
     fill="#454545"
     id="path21236" />
  <path
     d="M 394.19 352.76 C 399.77 352.09 405.57 352.65 411.20 352.49 C 412.58 357.98 413.89 363.48 415.19 368.99 C 418.87 369.54 422.44 370.54 426.01 371.57 C 429.77 367.73 433.43 363.81 437.10 359.87 C 442.01 362.75 446.92 365.62 451.79 368.57 C 450.24 373.80 448.66 379.02 447.13 384.25 C 449.40 386.68 451.68 389.10 453.98 391.50 L 454.89 391.60 C 460.02 389.87 465.14 388.12 470.27 386.41 C 473.24 391.25 476.12 396.15 479.00 401.05 C 475.04 404.79 471.06 408.51 467.08 412.23 C 468.35 415.99 469.46 419.80 470.47 423.64 C 475.47 425.22 481.45 425.59 486.03 428.02 C 486.73 433.57 486.06 439.31 486.23 444.91 C 481.18 445.99 476.13 447.09 471.07 448.15 C 470.15 451.73 469.30 455.32 468.40 458.90 C 472.40 462.58 476.34 466.32 480.30 470.05 C 477.33 474.68 475.06 479.83 471.74 484.22 C 466.41 483.88 461.16 481.32 455.95 480.09 C 453.48 482.47 450.92 484.76 448.43 487.11 C 450.15 492.50 451.94 497.87 453.76 503.23 C 448.88 506.13 444.00 509.02 439.09 511.88 C 435.37 507.88 431.62 503.91 427.87 499.93 C 424.04 500.88 420.29 502.08 416.52 503.22 C 415.28 508.74 413.92 514.23 412.60 519.73 C 406.83 519.74 401.06 519.75 395.29 519.74 C 393.98 514.30 392.69 508.85 391.42 503.40 C 387.82 502.66 384.28 501.70 380.73 500.79 C 376.89 504.68 373.14 508.65 369.35 512.58 C 364.53 509.66 359.68 506.79 354.82 503.94 C 356.37 498.68 357.92 493.42 359.43 488.15 C 356.70 485.90 354.16 483.46 351.71 480.91 C 346.53 482.57 341.38 484.29 336.22 486.01 C 333.96 481.92 331.36 478.02 329.07 473.94 C 328.66 472.89 327.58 471.66 328.64 470.66 C 331.94 466.87 336.02 463.78 339.49 460.13 C 337.83 456.48 336.99 452.52 335.40 448.86 C 330.60 446.92 325.22 446.32 320.24 444.84 C 320.23 439.08 320.28 433.32 320.29 427.57 C 325.56 426.24 330.84 424.97 336.13 423.70 C 336.70 419.98 337.78 416.41 338.55 412.73 C 334.73 409.01 330.84 405.37 326.94 401.73 C 329.79 396.87 332.66 392.02 335.51 387.15 C 340.72 388.58 345.76 390.94 351.05 391.94 C 353.63 389.56 355.80 386.82 358.60 384.66 C 356.93 379.48 355.19 374.31 353.50 369.14 C 358.38 366.32 363.24 363.46 368.08 360.59 C 371.84 364.49 375.56 368.40 379.20 372.41 C 383.00 371.06 386.89 370.05 390.74 368.89 C 392.05 363.57 392.50 357.97 394.19 352.76 Z"
     fill="#5993ce"
     id="path21238"
     style="fill:#5993ce;fill-opacity:0.64594597" />
  <path
     d="M 397.48 409.66 C 403.44 408.59 410.18 408.42 415.70 411.27 C 426.54 416.56 432.53 430.24 429.63 441.84 C 427.41 451.24 420.50 459.26 411.19 462.16 C 403.71 464.62 395.63 462.83 388.88 459.15 C 382.76 455.78 378.32 449.88 376.91 443.02 C 375.46 436.31 375.70 428.37 379.31 422.34 C 383.15 415.65 389.96 411.13 397.48 409.66 Z"
     fill="#454545"
     id="path21240" />
  <path
     d="M 47.56 562.09 C 53.16 561.37 58.39 561.82 64.00 561.75 C 72.67 561.69 81.33 561.77 90.00 561.87 C 242.67 561.88 395.33 561.86 548.00 561.88 C 562.58 561.73 577.17 561.64 591.76 561.85 C 591.76 567.43 591.73 573.01 591.72 578.60 L 590.47 578.66 C 585.31 578.61 580.16 578.30 575.00 578.46 C 408.67 578.47 242.33 578.46 76.00 578.46 C 67.09 578.51 58.22 578.26 49.32 578.75 C 48.68 578.72 48.05 578.68 47.41 578.65 C 47.57 573.15 46.98 567.56 47.56 562.09 Z"
     fill="#bab9bb"
     id="path21242" />
  <path
     d="M 76.00 578.46 C 242.33 578.46 408.67 578.47 575.00 578.46 C 580.16 578.30 585.31 578.61 590.47 578.66 C 575.49 582.61 560.48 586.49 545.53 590.53 C 540.28 591.92 535.36 591.50 530.00 591.50 C 390.00 591.50 250.00 591.51 110.00 591.50 C 106.08 591.49 102.05 591.73 98.15 591.34 C 94.49 590.91 90.76 589.68 87.19 588.74 C 74.57 585.41 61.93 582.17 49.32 578.75 C 58.22 578.26 67.09 578.51 76.00 578.46 Z"
     fill="#7a7a7a"
     id="path21244" />
  <g
     id="g23237"
     transform="matrix(1.2831817,0,0,1.2831817,-34.731789,-148.63748)">
    <path
       d="m 176.19943,428.37044 c 5.66637,-0.12183 11.36283,0.74359 16.72688,2.58177 8.59058,2.92128 16.29427,8.32692 21.9922,15.38589 4.10327,5.06034 7.16496,10.95022 8.93291,17.22119 2.77805,-3.8497 5.07469,-8.07476 7.07474,-12.37434 -0.12184,1.72786 -0.3381,3.41559 -0.84241,5.07754 -0.66191,2.18489 -1.54877,4.33251 -2.47859,6.41713 -1.73219,3.84109 -3.70788,7.57473 -5.82689,11.21526 -2.20636,3.77234 -4.50154,7.39566 -7.2495,10.80409 -1.46423,1.79376 -2.98578,3.48435 -4.74516,4.99587 -1.40117,1.19918 -3.00295,2.33675 -4.72504,3.01442 -1.31956,0.5258 -2.73937,0.73641 -4.14629,0.47995 -1.85249,-0.30802 -3.42276,-1.30521 -4.76951,-2.576 -1.90263,-1.80809 -3.43563,-4.13195 -4.82395,-6.34835 -3.19493,-5.19644 -5.84974,-10.52615 -9.84272,-15.23404 -2.75796,-3.2279 -6.01167,-5.90564 -9.986,-7.48878 -3.21071,-1.30234 -6.60337,-1.68344 -10.04618,-1.56452 -4.41132,0.13326 -8.75529,1.32811 -12.64369,3.40985 -4.32105,2.29664 -8.03179,5.57899 -11.25395,9.2324 -3.06743,3.45569 -5.71366,7.21371 -8.32549,11.01469 -0.92411,1.36539 -1.73072,2.81671 -2.42128,4.31248 -1.15477,2.52873 -2.0273,5.27952 -1.76225,8.09336 -2.20923,-2.91411 -2.79807,-6.69219 -2.12756,-10.23671 0.76363,-4.06747 3.066,-7.81545 5.70505,-10.94163 0.13472,-0.1705 0.25216,-0.32235 0.25645,-0.55016 0.27367,-5.54602 1.51009,-11.04908 3.65056,-16.17247 2.32386,-5.57181 5.70505,-10.68945 9.90148,-15.0277 4.01445,-4.15201 8.78395,-7.58334 13.99902,-10.06766 6.16353,-2.94424 12.95028,-4.53455 19.77717,-4.67353 z"
       fill="#f2a41f"
       id="path1181"
       style="stroke-width:0.143271" />
    <path
       d="m 225.51483,472.79456 c 0.0159,0.50431 -0.013,1.01004 -0.0145,1.51438 0.0631,5.30247 -0.54585,10.68802 -1.97999,15.79994 -2.05025,7.40283 -5.96442,14.25837 -11.35571,19.73561 -2.82245,2.9299 -5.96583,5.59332 -9.37711,7.81545 -5.6936,3.72935 -12.22675,6.14491 -18.98916,6.94579 -1.55736,0.15617 -3.11901,0.22209 -4.6821,0.27795 h -1.4671 c -4.13194,-0.0386 -8.25098,-0.50288 -12.26544,-1.49145 -4.94573,-1.21208 -9.70376,-3.20784 -14.02197,-5.90564 -5.29099,-3.3196 -9.99031,-7.65498 -13.60502,-12.75544 -0.4814,-0.65189 -0.86823,-1.36251 -1.36109,-2.00293 1.16624,-0.81664 2.19635,-1.84677 3.14767,-2.89982 1.44418,-1.62468 2.47287,-3.45855 3.54454,-5.33541 2.34247,-4.06318 4.61618,-8.3169 7.38706,-12.09496 1.98144,-2.69349 4.31963,-5.27667 7.2753,-6.91284 2.27802,-1.26794 4.82825,-1.79519 7.42003,-1.82241 1.77656,0.0172 3.45856,0.62036 4.93999,1.57885 2.24221,1.43415 4.12334,3.47145 5.82684,5.49446 3.81532,4.58897 7.12344,9.79544 11.35565,13.99902 2.47,2.41125 5.19219,4.42709 8.5003,5.52312 3.12617,1.03297 6.55182,1.11034 9.67511,0.0257 3.0359,-1.03728 5.589,-2.95137 7.79396,-5.24515 1.99147,-2.04591 3.68496,-4.42423 5.18355,-6.84836 2.54879,-4.18066 4.60047,-8.72665 6.30539,-13.31134 0.26218,-0.69344 0.48713,-1.39689 0.76364,-2.08459 z"
       fill="#00abc5"
       id="path1183"
       style="stroke-width:0.143271" />
  </g>
</svg>
