<?xml version="1.0" encoding="UTF-8" standalone="no"?>
<svg
   version="1.1"
   viewBox="0 0 822 613"
   width="822.0pt"
   height="613.0pt"
   id="svg11185"
   xmlns="http://www.w3.org/2000/svg"
   xmlns:svg="http://www.w3.org/2000/svg">
  <defs
     id="defs11189" />
  <path
     d="M 401.00 84.00 C 405.56 84.11 410.22 83.68 414.75 84.22 C 419.24 85.38 423.78 84.58 428.28 85.65 C 434.70 86.24 441.07 87.45 447.42 88.57 C 456.36 90.89 465.47 92.71 474.14 95.82 C 482.14 98.57 489.92 101.99 497.68 105.33 C 515.75 113.94 532.78 124.95 547.90 138.08 C 552.21 141.20 555.45 145.01 559.27 148.73 C 563.76 153.37 568.54 157.41 572.37 162.64 C 575.07 165.48 576.93 168.81 580.00 171.27 C 583.60 169.83 586.92 167.86 590.55 166.52 C 601.20 162.09 612.63 159.51 624.04 158.04 C 628.46 158.24 632.57 156.78 636.96 156.96 C 641.49 157.05 645.80 156.62 650.26 157.68 C 665.40 158.51 680.54 162.35 694.36 168.62 C 706.62 173.29 718.04 181.62 728.25 189.75 C 732.97 194.36 737.64 199.03 742.26 203.75 C 747.93 210.86 753.25 218.31 757.87 226.16 C 761.06 231.03 762.62 236.50 765.31 241.69 C 769.57 253.01 773.00 264.93 774.01 277.01 C 774.08 280.73 775.28 284.21 775.05 287.96 C 774.90 293.34 775.47 298.20 774.35 303.27 C 772.58 327.35 763.90 351.13 749.66 370.64 C 746.86 374.60 744.30 378.51 740.80 381.80 C 736.38 386.04 732.21 390.56 727.71 394.71 C 723.38 398.05 718.99 401.34 714.58 404.57 C 707.78 408.70 701.30 412.89 693.89 415.91 C 680.68 421.20 666.41 425.43 652.14 426.22 C 645.62 427.53 638.74 427.00 632.11 426.90 C 627.99 426.00 623.83 426.14 619.71 425.36 C 611.87 424.61 603.96 421.79 596.35 419.93 C 594.33 423.06 592.19 426.09 590.34 429.34 C 586.56 435.85 581.90 441.39 577.46 447.46 C 575.41 450.39 572.66 452.68 570.59 455.60 C 567.50 459.44 563.69 462.71 560.27 466.27 C 556.39 470.01 552.79 474.28 548.45 477.47 C 535.26 489.29 520.02 499.16 504.35 507.37 C 481.78 519.17 457.18 526.55 432.00 530.05 C 427.27 530.81 422.91 531.10 418.12 531.18 C 412.03 532.60 406.20 531.83 400.00 532.01 C 395.93 531.93 391.52 532.39 387.58 531.45 C 383.79 530.63 380.17 531.39 376.41 530.64 C 356.65 528.16 336.65 523.56 318.27 515.75 C 305.61 510.74 293.30 504.64 281.98 497.03 C 274.46 492.44 267.22 487.18 260.41 481.58 C 256.29 477.99 251.90 474.87 248.22 470.78 C 243.05 465.32 237.16 460.37 232.52 454.46 C 219.35 439.22 208.07 422.20 199.54 403.95 C 195.97 404.11 192.65 405.28 189.04 405.04 C 183.73 404.89 178.72 405.47 173.72 404.35 C 162.09 403.35 150.76 400.49 139.98 396.04 C 131.97 393.14 124.39 388.45 117.40 383.60 C 113.01 380.18 108.50 377.40 104.71 373.29 C 100.49 368.83 96.07 365.27 92.67 360.32 C 85.10 350.51 78.53 340.22 74.58 328.39 C 70.72 318.69 68.66 308.54 67.78 298.16 C 66.63 292.79 66.94 287.47 67.02 282.02 C 68.29 274.07 68.32 266.46 70.54 258.58 C 72.45 251.56 74.60 244.46 77.91 237.96 C 81.72 227.93 88.77 218.73 95.28 210.28 C 99.30 205.99 103.55 201.86 107.76 197.75 C 115.07 191.87 122.68 186.41 130.96 181.96 C 141.04 177.23 151.31 173.44 162.25 171.24 C 173.57 169.83 183.64 167.62 195.14 169.78 C 204.35 170.14 213.02 172.39 221.89 174.64 C 225.25 171.29 227.41 167.13 230.73 163.73 C 233.10 161.39 234.83 158.54 237.21 156.22 C 241.56 151.89 245.87 147.54 250.22 143.21 C 258.41 135.95 266.86 129.11 275.84 122.84 C 285.91 116.41 296.17 110.07 307.00 105.01 C 316.67 100.97 326.64 96.34 336.79 93.75 C 349.64 89.48 363.14 87.08 376.57 85.51 C 380.23 84.65 383.93 85.30 387.58 84.54 C 391.87 83.56 396.60 84.11 401.00 84.00 Z"
     fill="#230e0d"
     id="path11177" />
  <path
     d="M 493.00 108.99 C 503.16 113.13 512.11 118.92 521.49 124.54 C 534.74 133.25 547.20 143.37 558.17 154.84 C 564.10 160.64 569.93 166.83 574.56 173.74 C 564.36 180.11 554.68 186.55 546.17 195.16 C 542.17 199.27 538.01 202.98 534.60 207.64 C 527.84 216.75 521.44 225.67 517.20 236.26 C 510.07 251.08 506.60 267.06 505.29 283.39 C 503.84 292.41 505.48 300.83 506.28 309.78 C 508.08 325.60 513.38 340.45 520.28 354.72 C 524.07 361.72 528.49 368.33 533.30 374.67 C 537.98 381.40 544.39 386.85 550.17 392.83 C 558.70 400.18 568.01 406.76 577.95 412.07 C 582.27 414.28 586.87 415.44 590.94 418.18 C 586.73 427.20 580.14 435.27 574.21 443.23 C 566.39 453.45 557.33 462.17 548.12 471.10 C 538.89 478.92 529.42 486.79 519.02 493.02 C 488.55 512.66 452.65 524.05 416.53 526.45 C 387.62 528.13 358.28 524.63 330.91 515.02 C 305.28 506.51 281.40 492.60 260.77 475.24 C 253.38 469.42 247.07 462.24 240.32 455.68 C 230.32 444.50 221.11 432.42 213.65 419.39 C 210.54 414.07 207.16 409.51 205.30 403.56 C 212.65 401.47 220.11 400.32 227.20 397.32 C 238.76 393.32 248.67 386.66 258.47 379.48 C 262.97 376.23 266.42 372.21 270.33 368.33 C 278.64 360.53 284.88 350.28 290.44 340.41 C 296.72 327.22 301.11 312.87 302.48 298.29 C 303.70 290.46 303.47 282.67 302.36 274.84 C 301.22 262.66 297.79 251.01 293.32 239.67 C 288.65 229.11 282.33 219.82 275.18 210.81 C 272.80 207.92 269.98 205.32 267.35 202.66 C 259.96 194.97 250.77 188.74 241.62 183.35 C 237.09 180.65 232.15 179.08 227.47 176.68 C 234.23 166.04 243.90 156.64 252.85 147.84 C 268.73 133.12 286.74 120.89 306.08 111.17 C 316.22 106.61 326.20 102.13 336.91 98.99 C 387.90 83.12 444.51 86.48 493.00 108.99 Z"
     fill="#ee1b24"
     id="path11179"
     style="fill:#b83130;fill-opacity:0.56078434" />
  <path
     d="M 664.59 164.48 C 676.23 167.19 687.47 170.15 697.98 176.03 C 707.15 180.09 715.07 185.96 722.99 192.03 C 727.40 195.51 731.15 199.89 735.22 203.78 C 739.44 207.77 742.48 212.44 745.98 217.03 C 752.33 225.33 756.89 235.34 761.06 244.89 C 766.41 257.41 768.51 270.58 769.80 284.03 C 770.26 293.30 769.95 302.26 768.41 311.43 C 766.61 326.98 760.83 340.98 753.79 354.80 C 749.89 361.70 745.37 368.26 740.53 374.54 C 736.45 379.41 731.62 383.65 727.22 388.22 C 722.38 393.27 716.70 396.81 710.90 400.86 C 702.99 406.20 694.44 410.05 685.62 413.63 C 675.82 417.63 665.51 419.86 655.00 420.98 C 647.16 422.25 639.05 422.09 631.14 421.73 C 623.97 420.76 616.62 420.21 609.61 418.40 C 595.54 415.23 582.05 408.60 569.70 401.28 C 562.78 396.38 555.57 391.45 549.76 385.24 C 546.06 381.44 542.27 378.17 539.13 373.86 C 533.44 366.23 527.44 358.10 523.63 349.35 C 516.70 335.27 512.03 319.81 510.77 304.14 C 508.23 283.89 512.35 262.42 519.48 243.42 C 524.30 232.69 529.78 222.33 537.01 213.01 C 541.77 206.05 548.24 200.40 554.32 194.32 C 562.18 187.79 570.72 181.32 580.00 177.00 C 595.04 169.02 611.79 164.15 628.74 162.66 C 640.48 161.16 652.97 162.41 664.59 164.48 Z"
     fill="#ff7f26"
     id="path11181"
     style="fill:#facc70;fill-opacity:0.4945946" />
  <path
     d="M 196.16 174.77 C 209.33 176.34 222.60 179.29 234.33 185.68 C 248.83 192.36 261.13 202.42 271.55 214.43 C 277.17 221.78 283.13 229.72 286.76 238.27 C 297.20 259.60 300.57 284.70 295.97 308.00 C 294.26 319.16 289.93 329.13 285.23 339.29 C 282.23 344.78 278.69 350.00 275.13 355.14 C 271.14 360.94 266.09 365.19 261.23 370.23 C 256.05 375.66 249.84 379.39 243.55 383.54 C 238.30 387.02 232.56 389.23 226.85 391.82 C 217.99 395.71 208.59 397.89 199.00 398.98 C 189.75 400.37 180.24 400.37 171.00 398.98 C 159.22 397.71 147.62 394.28 136.99 389.05 C 130.36 386.35 124.46 382.51 118.73 378.27 C 93.30 360.14 76.40 331.04 73.01 300.00 C 71.36 289.84 71.93 279.69 73.61 269.57 C 76.46 249.96 84.98 231.69 97.15 216.15 C 100.66 211.46 105.16 207.43 109.28 203.28 C 119.06 194.37 130.37 187.80 142.44 182.50 C 152.18 178.46 162.47 176.07 172.93 174.90 C 180.60 173.79 188.49 173.65 196.16 174.77 Z"
     fill="#ff7f26"
     id="path11183"
     style="fill:#f4ad40;fill-opacity:0.48235294" />
</svg>
