<?xml version="1.0" encoding="UTF-8" standalone="no"?>
<!DOCTYPE svg PUBLIC "-//W3C//DTD SVG 1.1//EN" "http://www.w3.org/Graphics/SVG/1.1/DTD/svg11.dtd">
<svg xmlns="http://www.w3.org/2000/svg" version="1.1" viewBox="0 0 543 388" width="543.0pt" height="388.0pt">

<path d="M 489.77 1.57 C 496.85 3.09 503.91 4.84 511.03 6.18 C 513.94 6.81 516.97 7.37 519.75 8.48 C 522.37 9.56 523.94 12.49 524.37 15.17 C 524.94 20.10 525.46 25.04 525.51 30.01 C 525.61 38.05 527.44 45.93 527.50 53.99 C 527.59 61.53 529.10 69.17 528.79 76.69 C 528.34 81.36 524.01 82.64 520.57 84.76 C 510.65 90.01 500.68 95.15 490.84 100.54 C 488.55 101.90 485.58 102.92 483.80 104.93 C 482.75 107.90 482.41 111.16 481.87 114.26 C 481.74 115.57 481.31 117.42 482.16 118.56 C 484.49 122.31 487.46 125.47 489.42 129.53 C 493.71 138.42 496.52 148.02 496.49 157.96 C 496.44 162.95 496.70 168.15 495.78 173.07 C 495.02 177.01 490.49 179.16 487.08 176.88 C 482.52 173.12 478.98 168.16 474.62 164.14 C 472.69 171.17 471.37 178.85 471.38 186.15 C 478.48 187.59 485.66 188.94 492.70 190.67 C 498.72 192.06 503.34 197.67 502.70 203.96 C 502.20 208.97 500.25 213.84 499.22 218.78 C 504.15 219.40 509.05 219.21 514.00 219.19 C 519.80 219.16 525.58 219.33 531.38 219.01 C 531.50 213.40 531.79 207.69 531.26 202.10 C 530.61 198.03 528.05 195.46 525.19 192.77 C 519.96 187.97 515.02 182.89 509.83 178.06 C 508.73 176.98 507.55 175.80 506.76 174.47 C 505.68 171.91 506.57 168.49 509.15 167.18 C 511.20 165.97 513.49 166.18 515.34 167.66 C 518.47 170.14 521.17 173.19 524.06 175.94 C 528.80 180.68 534.69 185.12 538.60 190.52 C 540.92 193.71 541.94 197.21 543.00 200.95 L 543.00 370.99 C 541.47 374.72 540.05 378.24 537.02 381.03 C 533.59 384.80 527.97 386.20 523.06 386.35 C 356.69 386.32 190.32 386.36 23.95 386.33 C 19.20 386.10 13.88 384.87 10.12 381.80 C 5.07 377.95 1.63 371.46 1.60 365.08 C 1.64 311.08 1.63 256.95 1.61 202.94 C 1.67 197.39 3.97 191.84 7.88 187.89 C 22.43 173.42 37.53 159.54 52.14 145.12 C 61.56 136.56 70.45 127.47 79.68 118.70 C 90.29 108.99 100.25 98.57 110.86 88.88 C 118.24 81.95 125.26 74.61 132.73 67.78 C 135.20 65.52 137.59 64.69 140.93 64.65 C 154.30 64.61 167.69 64.66 181.06 64.62 C 183.29 64.66 186.04 64.63 187.89 66.06 C 191.04 68.63 189.91 74.71 185.71 75.49 C 175.89 76.41 165.65 74.66 155.94 76.48 C 159.35 80.30 163.24 83.54 166.88 87.11 C 172.71 92.62 178.29 98.38 184.13 103.86 C 194.75 113.55 204.69 123.93 215.27 133.66 C 222.26 140.01 228.63 147.05 235.81 153.17 C 237.05 148.86 235.15 144.25 234.56 139.77 C 233.33 133.81 233.36 127.29 231.40 121.55 C 228.74 118.61 224.94 116.74 222.10 113.91 C 204.02 96.42 197.58 68.13 206.22 44.53 C 208.84 37.86 212.27 30.48 217.54 25.48 C 219.49 23.76 221.95 22.69 224.37 24.22 C 227.50 25.81 227.56 29.27 228.22 32.31 C 229.35 41.17 230.85 49.98 231.90 58.85 C 232.48 62.21 232.92 65.75 234.17 68.94 C 235.74 72.47 239.14 76.00 243.28 75.85 C 249.82 75.97 256.41 74.95 262.83 73.83 C 268.08 72.96 271.31 67.98 271.66 62.96 C 272.11 56.51 270.21 49.54 269.62 43.05 C 268.96 36.29 267.21 29.66 266.61 22.91 C 266.11 18.36 271.47 14.57 275.52 17.17 C 284.65 22.52 292.01 31.40 296.82 40.75 C 301.31 50.22 304.26 60.42 303.69 71.00 C 304.03 77.86 302.67 84.42 302.31 91.22 C 306.94 91.80 314.32 90.50 317.16 95.17 C 318.55 99.02 316.78 104.04 318.57 107.74 C 319.95 110.23 322.31 110.48 324.91 110.62 C 332.13 110.91 339.50 111.92 346.70 111.51 C 350.23 110.75 350.31 105.82 350.54 102.99 C 350.61 99.18 352.56 95.17 356.90 95.20 C 363.60 95.06 370.33 95.58 377.04 95.70 C 392.35 96.95 407.69 97.23 423.01 98.35 C 429.73 98.20 436.30 99.42 442.99 99.44 C 451.67 99.22 460.63 102.48 468.13 106.66 C 469.62 107.22 470.59 108.46 472.08 107.18 C 472.48 104.91 472.88 101.97 471.70 99.88 C 469.10 94.76 466.07 89.85 463.24 84.86 C 460.79 80.48 458.59 75.98 455.98 71.68 C 454.34 68.71 452.15 65.59 452.61 62.01 C 453.06 58.90 454.90 55.85 456.32 53.07 C 463.23 39.66 469.77 26.13 476.50 12.64 C 478.01 9.63 479.39 6.17 481.67 3.67 C 483.85 1.89 486.98 0.92 489.77 1.57 Z" fill="#003770" />
<path d="M 489.29 13.29 C 497.32 14.69 505.36 16.54 513.25 18.60 C 513.54 26.51 514.41 34.32 515.28 42.18 C 515.49 52.57 516.68 62.79 517.65 73.12 C 506.55 79.68 494.83 85.21 483.59 91.56 C 482.64 91.98 481.16 93.15 480.36 91.89 C 477.70 88.05 475.86 83.62 473.48 79.60 C 470.28 74.13 467.38 68.51 464.40 62.92 C 469.52 51.74 475.28 40.85 480.77 29.85 C 483.59 24.38 485.82 18.38 489.29 13.29 Z" fill="#ffffff" />
<path d="M 280.56 37.77 C 285.68 41.87 288.22 49.32 290.32 55.33 C 294.20 67.22 292.28 78.15 290.75 90.20 C 284.80 90.75 277.58 88.35 273.09 93.08 C 268.47 97.89 269.91 103.93 269.30 109.99 C 268.51 117.01 268.57 124.06 267.64 131.07 C 267.32 139.05 267.10 147.11 267.17 155.10 C 266.89 159.24 270.63 163.25 274.48 164.25 C 278.13 164.77 281.82 164.79 285.46 165.51 C 286.63 172.99 287.11 180.55 288.42 188.02 C 289.29 198.44 291.95 208.34 291.86 218.79 C 287.16 218.93 282.46 218.96 277.76 218.72 C 277.51 212.23 278.09 205.63 277.40 199.17 C 276.18 191.86 271.07 186.94 265.87 182.16 C 261.33 178.03 256.81 173.86 252.51 169.47 C 250.55 167.58 250.25 165.24 249.77 162.70 C 247.47 147.78 245.22 132.80 242.69 117.93 C 242.29 112.46 236.47 111.21 232.96 108.03 C 222.81 99.97 216.63 87.71 214.59 75.05 C 214.02 65.00 213.37 55.54 218.04 46.29 C 221.09 55.45 219.79 66.31 224.34 74.57 C 227.24 80.66 232.99 85.61 239.51 87.38 C 246.95 88.61 255.52 86.44 262.94 85.36 C 267.43 84.75 271.67 83.13 275.10 80.11 C 280.95 74.98 283.91 66.65 283.34 58.99 C 282.48 51.92 281.06 44.88 280.56 37.77 Z" fill="#ffffff" />
<path d="M 323.93 64.60 C 350.61 64.68 377.41 64.58 404.08 64.66 C 408.43 64.63 411.12 67.13 414.00 69.99 C 417.09 73.22 420.80 75.91 423.67 79.33 C 425.07 80.85 424.89 83.50 424.41 85.37 C 422.93 88.70 418.64 89.53 415.87 87.24 C 411.95 84.24 408.62 80.44 404.92 77.16 C 399.83 80.65 396.18 85.69 391.31 89.36 C 388.50 91.63 382.93 89.45 383.12 85.63 C 382.38 81.52 386.21 79.06 388.16 75.83 C 369.12 75.55 350.05 75.80 331.00 75.72 C 326.91 75.61 322.61 76.08 318.58 75.34 C 314.93 73.74 314.29 68.72 317.15 66.09 C 318.92 64.68 321.77 64.64 323.93 64.60 Z" fill="#003770" />
<path d="M 140.40 77.42 C 153.75 90.80 167.74 103.53 181.14 116.87 C 191.72 126.62 201.78 136.89 212.35 146.64 C 220.68 154.63 228.83 162.79 237.28 170.65 C 244.90 177.71 252.04 185.21 259.74 192.20 C 262.08 194.41 264.44 196.54 265.60 199.63 C 266.94 202.71 266.49 206.69 266.57 210.00 C 266.51 260.00 266.58 310.00 266.54 360.00 C 266.56 364.87 266.67 369.73 266.34 374.60 C 185.21 374.62 104.07 374.61 22.94 374.61 C 19.31 374.87 15.52 372.37 13.94 369.16 C 12.28 364.93 12.83 359.50 12.75 355.00 C 12.80 305.33 12.80 255.61 12.76 205.95 C 12.93 202.21 13.11 198.72 15.94 195.95 C 22.43 189.43 29.06 183.04 35.81 176.80 C 44.21 168.85 52.28 160.58 60.84 152.81 C 70.89 143.19 80.63 133.28 90.92 123.91 C 103.96 110.94 117.55 98.56 130.57 85.57 C 133.57 82.73 136.65 79.19 140.40 77.42 Z" fill="#ffffff" />
<path d="M 281.57 101.77 C 289.70 101.22 297.96 102.63 306.12 102.96 C 306.64 106.55 307.18 110.69 309.00 113.89 C 310.92 117.02 314.00 119.79 317.55 120.86 C 326.46 122.86 335.09 122.17 344.03 123.28 C 349.34 123.80 354.76 121.04 358.00 116.90 C 360.29 113.98 361.20 109.75 362.60 106.31 C 369.44 106.42 376.15 107.62 383.00 107.44 C 388.40 107.24 393.60 108.44 398.96 108.58 C 408.34 108.52 417.60 109.72 426.99 109.75 C 436.72 111.03 448.37 109.82 457.28 113.89 C 465.19 117.34 472.02 123.14 476.56 130.49 C 481.44 138.05 484.96 147.38 484.63 156.46 C 480.77 154.81 477.74 151.96 474.01 150.10 C 463.54 144.76 450.59 143.49 439.00 143.32 C 427.07 142.91 414.18 145.48 404.32 152.49 C 401.06 154.67 398.72 157.71 395.79 160.23 C 390.42 161.07 384.53 159.41 379.03 159.52 C 372.27 159.59 365.62 158.73 358.90 158.21 C 358.35 152.50 357.19 147.24 352.64 143.34 C 348.40 139.55 343.65 139.72 338.32 139.27 C 331.53 138.28 324.79 138.35 317.94 138.37 C 314.30 138.24 311.23 140.32 308.65 142.67 C 305.29 145.89 304.18 150.24 303.02 154.58 C 294.70 154.78 286.44 154.23 278.18 153.37 C 278.16 148.23 278.48 143.10 278.84 137.98 C 279.56 130.45 279.27 122.90 280.16 115.38 C 280.66 111.00 279.91 105.87 281.57 101.77 Z" fill="#ffffff" />
<path d="M 130.53 128.70 C 136.80 126.62 143.81 127.21 149.54 130.53 C 155.02 133.68 158.83 139.03 160.44 145.10 C 161.24 150.95 161.13 156.71 157.96 161.89 C 152.71 171.58 140.40 175.99 130.13 172.07 C 122.59 169.47 117.10 162.74 115.58 154.99 C 115.23 150.37 114.93 145.43 117.11 141.18 C 119.63 135.34 124.55 130.82 130.53 128.70 Z" fill="#003770" />
<path d="M 132.45 140.40 C 134.90 138.95 138.32 139.10 141.05 139.43 C 146.34 140.63 149.94 145.61 149.56 151.02 C 149.55 157.61 143.38 162.68 137.00 162.25 C 132.66 161.46 128.76 159.02 127.26 154.70 C 125.25 149.43 127.24 142.95 132.45 140.40 Z" fill="#ffffff" />
<path d="M 318.54 149.75 C 323.61 149.22 328.83 150.56 333.96 150.45 C 337.43 150.78 342.11 149.90 345.14 151.84 C 347.79 154.06 346.59 159.05 346.79 162.13 C 346.39 166.25 350.06 168.35 349.83 172.26 C 349.81 179.87 349.27 187.42 348.63 195.00 C 348.67 203.01 347.42 210.89 347.24 218.89 C 339.19 219.50 331.07 219.07 323.00 219.19 C 316.52 219.04 310.09 219.65 303.81 218.62 C 301.78 201.16 299.13 183.75 297.26 166.27 C 301.64 166.14 306.15 166.84 310.50 166.36 C 314.13 165.47 314.34 162.07 314.64 158.94 C 315.16 155.42 314.39 151.15 318.54 149.75 Z" fill="#ffffff" />
<path d="M 432.92 154.73 C 442.90 154.26 453.22 155.32 462.90 157.86 C 462.79 166.30 460.63 174.57 459.59 182.96 C 452.01 182.19 444.53 179.90 436.99 178.65 C 432.89 178.01 428.86 177.91 425.33 180.42 C 422.41 182.47 421.08 185.51 420.18 188.85 C 417.73 198.75 415.74 208.81 413.49 218.76 C 408.13 219.39 402.95 219.40 397.59 218.80 C 397.74 206.86 399.63 194.93 399.64 182.96 C 399.96 178.84 399.14 173.53 402.57 170.55 C 405.18 167.64 407.09 164.66 410.24 162.28 C 416.46 157.35 425.20 155.54 432.92 154.73 Z" fill="#ffffff" />
<path d="M 361.70 170.30 C 370.72 170.11 379.61 171.54 388.64 171.60 C 388.68 176.45 388.64 181.42 388.06 186.24 C 387.26 192.29 387.89 198.31 387.12 204.38 C 386.47 209.19 386.46 214.03 385.95 218.85 C 377.10 219.48 368.12 219.20 359.25 219.07 C 359.34 211.00 359.41 202.95 360.37 194.91 C 360.61 186.69 361.37 178.51 361.70 170.30 Z" fill="#ffffff" />
<path d="M 432.46 189.19 C 448.29 192.80 464.17 196.09 480.02 199.60 C 483.96 200.43 487.88 201.08 491.64 202.59 C 490.17 208.06 489.19 213.60 487.26 218.94 C 482.72 219.30 478.18 219.28 473.63 219.14 C 473.56 216.98 473.83 214.64 473.33 212.53 C 472.01 208.85 466.43 208.08 463.95 210.89 C 462.48 213.31 461.93 216.38 461.08 219.06 C 456.79 219.24 452.53 219.28 448.23 219.17 C 448.37 216.30 448.86 213.52 449.36 210.71 C 450.15 207.58 446.88 204.49 443.91 204.44 C 441.19 204.24 438.75 206.33 438.25 208.95 C 437.40 212.22 436.78 215.56 435.93 218.83 C 432.37 219.23 428.92 219.27 425.34 219.16 C 426.03 213.33 427.83 207.84 428.88 202.07 C 429.83 197.78 430.52 193.11 432.46 189.19 Z" fill="#ffffff" />
<path d="M 277.78 230.59 C 283.86 230.41 289.92 230.53 296.00 230.51 C 371.00 230.50 446.00 230.52 521.00 230.50 C 524.47 230.46 527.94 230.50 531.41 230.59 C 531.63 273.72 531.39 316.89 531.53 360.02 C 531.48 362.47 531.66 365.26 530.86 367.59 C 529.50 371.75 525.59 375.02 521.06 374.62 C 440.03 374.56 358.96 374.68 277.95 374.56 C 277.83 372.39 277.70 370.23 277.69 368.05 C 277.79 322.24 277.62 276.40 277.78 230.59 Z" fill="#ffffff" />
</svg>