<?xml version="1.0" encoding="UTF-8" standalone="no"?>
<svg
   version="1.1"
   viewBox="0 0 543 388"
   width="543.0pt"
   height="388.0pt"
   id="svg30"
   xmlns="http://www.w3.org/2000/svg"
   xmlns:svg="http://www.w3.org/2000/svg">
  <defs
     id="defs34" />
  <path
     d="M 0.00 0.00 L 543.00 0.00 L 543.00 201.10 C 541.95 197.28 540.94 193.71 538.56 190.47 C 534.76 185.29 529.13 180.99 524.55 176.44 C 521.49 173.53 518.64 170.33 515.40 167.63 C 512.39 165.05 507.48 166.73 506.54 170.53 C 505.69 173.29 507.02 175.21 508.90 177.07 C 514.50 182.47 520.00 187.96 525.72 193.24 C 528.64 195.96 531.04 198.85 531.37 203.01 C 531.70 208.37 531.50 213.79 531.43 219.16 C 520.70 219.01 509.86 219.64 499.17 218.80 C 500.28 214.16 501.89 209.57 502.62 204.86 C 503.62 198.65 499.44 192.52 493.43 190.91 C 486.12 188.98 478.60 187.61 471.19 186.12 C 471.57 178.71 472.65 171.13 474.62 163.98 C 478.86 168.16 482.53 173.10 487.11 176.89 C 491.02 179.41 495.70 176.45 495.96 172.01 C 496.93 161.76 497.02 150.53 493.78 140.65 C 491.79 134.25 489.33 128.11 485.11 122.81 C 483.90 120.87 481.26 118.49 481.67 116.07 C 482.05 112.61 482.62 109.02 483.53 105.66 C 483.80 104.27 485.63 103.39 486.74 102.72 C 498.87 96.20 511.09 89.83 523.18 83.25 C 525.09 82.16 527.17 81.14 528.12 79.03 C 529.88 75.53 528.49 70.85 528.41 67.01 C 527.43 58.36 527.65 49.67 526.41 41.04 C 525.25 33.84 525.72 26.58 524.76 19.35 C 524.52 15.29 524.17 11.19 520.39 8.80 C 516.97 7.23 513.02 6.65 509.36 5.85 C 502.78 4.60 496.28 2.95 489.72 1.57 C 485.31 0.71 481.08 2.99 479.26 7.07 C 471.73 22.11 464.27 37.36 456.70 52.39 C 454.75 56.32 451.47 60.99 452.92 65.54 C 454.60 70.24 457.93 74.34 460.09 78.86 C 463.63 86.09 468.10 92.73 471.68 99.93 C 472.86 102.04 472.48 104.90 472.11 107.20 C 470.59 108.39 469.63 107.25 468.15 106.67 C 460.66 102.49 451.71 99.23 443.06 99.45 C 437.66 99.56 432.39 98.47 427.00 98.46 C 420.61 98.46 414.30 97.56 407.92 97.44 C 391.19 96.87 374.65 95.25 357.90 95.15 C 355.71 95.19 353.83 95.44 352.42 97.31 C 349.50 100.70 351.35 106.18 349.05 109.89 C 347.95 111.42 346.79 111.66 344.99 111.66 C 337.70 111.58 330.41 110.96 323.14 110.47 C 320.75 110.39 318.68 108.62 318.06 106.34 C 317.20 102.81 318.33 98.65 317.17 95.18 C 314.29 90.52 306.86 91.77 302.22 91.24 C 302.48 86.12 303.66 81.17 303.63 76.03 C 303.66 69.05 304.14 62.46 302.16 55.66 C 298.79 41.23 290.78 28.12 278.85 19.21 C 276.47 17.65 274.13 15.84 271.10 16.46 C 269.29 17.08 267.75 18.62 266.84 20.28 C 266.42 21.97 266.65 23.90 266.87 25.61 C 267.79 31.79 269.13 37.79 269.73 44.02 C 270.37 50.15 272.10 56.81 271.67 62.94 C 271.40 66.72 269.57 70.36 266.39 72.50 C 264.71 73.58 262.47 73.93 260.53 74.27 C 254.91 75.07 248.93 76.04 243.26 75.85 C 239.09 76.00 235.66 72.39 234.12 68.83 C 232.89 65.57 232.42 61.99 231.85 58.57 C 230.81 49.75 229.35 40.99 228.19 32.18 C 227.47 28.67 227.39 25.40 223.61 23.81 C 219.63 22.32 216.41 26.44 214.27 29.19 C 207.12 39.21 202.75 51.63 202.52 63.97 C 201.73 82.88 209.36 102.64 223.60 115.31 C 226.01 117.56 229.29 119.05 231.40 121.54 C 232.71 125.11 233.00 129.13 233.53 132.88 C 234.27 139.79 236.31 146.59 236.50 153.48 C 231.47 149.82 227.46 145.28 222.97 141.04 C 215.57 133.75 207.82 126.85 200.50 119.50 C 191.80 110.85 182.64 102.71 173.99 94.01 C 168.04 88.02 161.70 82.44 155.71 76.50 C 165.50 74.71 175.81 76.38 185.70 75.49 C 189.93 74.67 191.02 68.71 187.88 66.06 C 186.08 64.65 183.26 64.67 181.08 64.62 C 167.70 64.66 154.30 64.61 140.92 64.66 C 137.59 64.71 135.21 65.53 132.75 67.80 C 124.07 75.73 115.94 84.30 107.30 92.28 C 98.82 100.13 90.72 108.38 82.33 116.33 C 73.62 124.27 65.40 132.76 56.81 140.83 C 48.43 148.45 40.56 156.61 32.30 164.36 C 24.33 171.69 16.68 179.37 8.87 186.88 C 4.41 191.01 1.74 196.86 1.62 202.94 C 1.63 254.50 1.64 306.46 1.62 357.99 C 1.69 362.26 1.15 366.93 2.58 370.94 C 4.49 376.89 8.75 381.93 14.54 384.39 C 17.53 385.52 20.74 386.22 23.93 386.32 C 188.62 386.37 353.32 386.30 518.01 386.36 C 524.69 386.56 532.11 386.23 537.02 381.03 C 540.12 378.19 541.51 374.59 543.00 370.76 L 543.00 388.00 L 0.00 388.00 L 0.00 0.00 Z"
     fill="#000000"
     id="path2" />
  <path
     d="M 489.72 1.57 C 496.28 2.95 502.78 4.60 509.36 5.85 C 513.02 6.65 516.97 7.23 520.39 8.80 C 524.17 11.19 524.52 15.29 524.76 19.35 C 525.72 26.58 525.25 33.84 526.41 41.04 C 527.65 49.67 527.43 58.36 528.41 67.01 C 528.49 70.85 529.88 75.53 528.12 79.03 C 527.17 81.14 525.09 82.16 523.18 83.25 C 511.09 89.83 498.87 96.20 486.74 102.72 C 485.63 103.39 483.80 104.27 483.53 105.66 C 482.62 109.02 482.05 112.61 481.67 116.07 C 481.26 118.49 483.90 120.87 485.11 122.81 C 489.33 128.11 491.79 134.25 493.78 140.65 C 497.02 150.53 496.93 161.76 495.96 172.01 C 495.70 176.45 491.02 179.41 487.11 176.89 C 482.53 173.10 478.86 168.16 474.62 163.98 C 472.65 171.13 471.57 178.71 471.19 186.12 C 478.60 187.61 486.12 188.98 493.43 190.91 C 499.44 192.52 503.62 198.65 502.62 204.86 C 501.89 209.57 500.28 214.16 499.17 218.80 C 509.86 219.64 520.70 219.01 531.43 219.16 C 531.50 213.79 531.70 208.37 531.37 203.01 C 531.04 198.85 528.64 195.96 525.72 193.24 C 520.00 187.96 514.50 182.47 508.90 177.07 C 507.02 175.21 505.69 173.29 506.54 170.53 C 507.48 166.73 512.39 165.05 515.40 167.63 C 518.64 170.33 521.49 173.53 524.55 176.44 C 529.13 180.99 534.76 185.29 538.56 190.47 C 540.94 193.71 541.95 197.28 543.00 201.10 L 543.00 370.76 C 541.51 374.59 540.12 378.19 537.02 381.03 C 532.11 386.23 524.69 386.56 518.01 386.36 C 353.32 386.30 188.62 386.37 23.93 386.32 C 20.74 386.22 17.53 385.52 14.54 384.39 C 8.75 381.93 4.49 376.89 2.58 370.94 C 1.15 366.93 1.69 362.26 1.62 357.99 C 1.64 306.46 1.63 254.50 1.62 202.94 C 1.74 196.86 4.41 191.01 8.87 186.88 C 16.68 179.37 24.33 171.69 32.30 164.36 C 40.56 156.61 48.43 148.45 56.81 140.83 C 65.40 132.76 73.62 124.27 82.33 116.33 C 90.72 108.38 98.82 100.13 107.30 92.28 C 115.94 84.30 124.07 75.73 132.75 67.80 C 135.21 65.53 137.59 64.71 140.92 64.66 C 154.30 64.61 167.70 64.66 181.08 64.62 C 183.26 64.67 186.08 64.65 187.88 66.06 C 191.02 68.71 189.93 74.67 185.70 75.49 C 175.81 76.38 165.50 74.71 155.71 76.50 C 161.70 82.44 168.04 88.02 173.99 94.01 C 182.64 102.71 191.80 110.85 200.50 119.50 C 207.82 126.85 215.57 133.75 222.97 141.04 C 227.46 145.28 231.47 149.82 236.50 153.48 C 236.31 146.59 234.27 139.79 233.53 132.88 C 233.00 129.13 232.71 125.11 231.40 121.54 C 229.29 119.05 226.01 117.56 223.60 115.31 C 209.36 102.64 201.73 82.88 202.52 63.97 C 202.75 51.63 207.12 39.21 214.27 29.19 C 216.41 26.44 219.63 22.32 223.61 23.81 C 227.39 25.40 227.47 28.67 228.19 32.18 C 229.35 40.99 230.81 49.75 231.85 58.57 C 232.42 61.99 232.89 65.57 234.12 68.83 C 235.66 72.39 239.09 76.00 243.26 75.85 C 248.93 76.04 254.91 75.07 260.53 74.27 C 262.47 73.93 264.71 73.58 266.39 72.50 C 269.57 70.36 271.40 66.72 271.67 62.94 C 272.10 56.81 270.37 50.15 269.73 44.02 C 269.13 37.79 267.79 31.79 266.87 25.61 C 266.65 23.90 266.42 21.97 266.84 20.28 C 267.75 18.62 269.29 17.08 271.10 16.46 C 274.13 15.84 276.47 17.65 278.85 19.21 C 290.78 28.12 298.79 41.23 302.16 55.66 C 304.14 62.46 303.66 69.05 303.63 76.03 C 303.66 81.17 302.48 86.12 302.22 91.24 C 306.86 91.77 314.29 90.52 317.17 95.18 C 318.33 98.65 317.20 102.81 318.06 106.34 C 318.68 108.62 320.75 110.39 323.14 110.47 C 330.41 110.96 337.70 111.58 344.99 111.66 C 346.79 111.66 347.95 111.42 349.05 109.89 C 351.35 106.18 349.50 100.70 352.42 97.31 C 353.83 95.44 355.71 95.19 357.90 95.15 C 374.65 95.25 391.19 96.87 407.92 97.44 C 414.30 97.56 420.61 98.46 427.00 98.46 C 432.39 98.47 437.66 99.56 443.06 99.45 C 451.71 99.23 460.66 102.49 468.15 106.67 C 469.63 107.25 470.59 108.39 472.11 107.20 C 472.48 104.90 472.86 102.04 471.68 99.93 C 468.10 92.73 463.63 86.09 460.09 78.86 C 457.93 74.34 454.60 70.24 452.92 65.54 C 451.47 60.99 454.75 56.32 456.70 52.39 C 464.27 37.36 471.73 22.11 479.26 7.07 C 481.08 2.99 485.31 0.71 489.72 1.57 Z"
     fill="#003770"
     id="path4" />
  <path
     d="M 489.29 13.29 C 497.34 14.61 505.36 16.68 513.31 18.56 C 513.49 26.10 514.29 33.55 515.20 41.03 C 515.61 51.78 516.49 62.56 517.72 73.25 C 505.45 79.76 493.35 86.56 480.90 92.72 C 475.22 82.88 469.69 72.95 464.30 62.95 C 468.63 53.88 473.28 44.96 477.67 35.92 C 481.80 28.56 484.68 20.33 489.29 13.29 Z"
     fill="#000000"
     id="path6" />
  <path
     d="M 280.37 37.37 C 281.29 38.20 282.19 39.05 283.08 39.92 C 287.11 45.97 290.02 53.07 291.57 60.17 C 293.84 69.80 291.90 80.51 290.80 90.33 C 285.08 90.66 277.34 88.44 273.08 93.13 C 268.43 97.95 269.93 104.01 269.29 110.09 C 268.54 116.46 268.65 122.88 267.79 129.23 C 267.33 134.49 267.55 139.75 266.81 144.99 C 266.65 150.83 265.23 156.74 269.73 161.34 C 274.06 166.18 279.70 163.76 285.30 165.61 C 286.36 169.07 286.34 172.37 286.74 175.93 C 288.64 190.34 290.81 204.73 292.47 219.17 C 287.56 219.20 282.66 219.19 277.76 219.20 C 277.59 213.11 277.92 207.00 277.59 200.93 C 277.15 194.45 273.41 189.42 268.92 185.05 C 263.33 179.71 257.34 174.61 252.06 168.95 C 250.44 167.16 250.24 164.96 249.77 162.69 C 247.40 147.50 245.17 132.26 242.50 117.12 C 241.97 112.97 237.60 111.56 234.70 109.33 C 223.61 101.57 216.63 88.16 214.57 74.98 C 213.90 64.88 213.58 55.26 218.04 45.88 C 220.32 53.54 220.23 61.71 222.25 69.38 C 224.77 77.90 230.79 84.97 239.53 87.37 C 247.26 88.63 256.12 86.31 263.83 85.21 C 269.67 84.34 274.99 81.29 278.42 76.45 C 282.43 70.79 284.28 63.36 283.02 56.50 C 282.04 50.14 281.10 43.76 280.37 37.37 Z"
     fill="#000000"
     id="path8" />
  <path
     d="M 322.91 64.63 C 349.64 64.63 376.37 64.65 403.09 64.63 C 406.96 64.52 409.76 65.85 412.46 68.53 C 415.94 72.06 419.82 75.20 423.22 78.80 C 425.04 80.60 424.99 83.01 424.42 85.34 C 422.94 88.68 418.70 89.54 415.90 87.26 C 411.94 84.24 408.56 80.44 404.91 77.06 C 401.01 80.09 397.60 83.62 394.09 87.07 C 392.53 88.52 390.35 90.51 388.08 90.33 C 385.56 89.77 383.07 88.61 383.13 85.64 C 382.38 81.36 386.23 79.03 388.35 75.77 C 365.92 75.59 343.44 75.83 321.01 75.67 C 317.27 75.81 314.77 72.76 315.49 69.09 C 316.18 65.26 319.61 64.71 322.91 64.63 Z"
     fill="#003770"
     id="path10" />
  <path
     d="M 140.21 77.28 C 146.16 83.17 152.11 89.04 158.23 94.75 C 166.55 102.44 174.46 110.55 182.74 118.28 C 192.43 127.25 201.60 136.75 211.33 145.68 C 221.20 155.16 230.93 164.75 240.94 174.08 C 247.08 180.00 252.93 185.99 259.26 191.69 C 261.54 193.82 264.21 196.20 265.41 199.13 C 266.96 202.41 266.50 206.41 266.58 210.00 C 266.51 264.86 266.60 319.73 266.53 374.60 C 187.69 374.64 108.85 374.59 30.01 374.63 C 26.81 374.59 23.53 374.82 20.35 374.39 C 17.26 373.50 14.32 370.92 13.49 367.73 C 12.33 363.41 12.83 358.46 12.76 354.00 C 12.79 304.66 12.80 255.26 12.76 205.93 C 12.92 202.19 13.12 198.72 15.93 195.94 C 22.92 188.94 30.06 182.08 37.30 175.33 C 45.04 168.05 52.45 160.43 60.31 153.26 C 68.90 145.20 77.07 136.77 85.72 128.76 C 93.91 121.30 101.56 113.26 109.68 105.73 C 117.49 98.54 124.97 91.00 132.58 83.60 C 135.01 81.29 137.35 79.07 140.21 77.28 Z"
     fill="#000000"
     id="path12" />
  <path
     d="M 306.23 102.76 C 306.66 107.15 307.15 111.51 309.85 115.17 C 312.74 119.13 316.79 121.34 321.72 121.53 C 329.15 122.63 336.61 122.38 344.06 123.28 C 349.54 123.79 355.14 120.76 358.40 116.45 C 360.54 113.54 361.23 109.76 362.33 106.35 C 366.29 106.51 370.21 106.51 374.15 107.00 C 380.29 107.77 386.32 107.09 392.38 108.01 C 398.61 109.01 404.77 108.32 410.99 109.00 C 417.32 109.73 423.68 109.32 430.01 110.10 C 438.63 110.89 448.99 110.14 456.98 113.77 C 464.99 117.29 471.95 123.01 476.56 130.48 C 481.70 138.39 485.11 148.02 484.69 157.54 C 481.36 154.98 478.38 152.30 474.58 150.42 C 464.01 144.85 450.78 143.48 438.99 143.32 C 426.85 142.90 413.78 145.65 403.80 152.85 C 400.73 154.95 398.59 157.88 395.79 160.24 C 390.06 161.08 383.88 159.37 378.02 159.50 C 371.58 159.57 365.25 158.62 358.84 158.26 C 358.51 152.29 356.93 146.75 352.10 142.89 C 347.67 139.32 342.77 139.78 337.46 139.21 C 331.06 138.27 324.41 138.36 317.94 138.37 C 314.35 138.25 311.21 140.33 308.67 142.66 C 305.35 146.00 304.08 150.22 303.04 154.68 C 294.65 154.90 286.42 153.78 278.07 153.41 C 278.22 146.72 278.69 140.05 279.20 133.38 C 279.43 122.82 280.43 112.31 280.87 101.75 C 289.34 101.21 297.73 102.82 306.23 102.76 Z"
     fill="#000000"
     id="path14" />
  <path
     d="M 130.49 128.66 C 136.56 126.75 143.25 127.14 148.89 130.17 C 154.70 133.25 158.76 138.79 160.43 145.10 C 161.40 151.51 160.93 157.76 157.15 163.22 C 151.52 172.23 139.73 175.79 129.90 171.98 C 122.48 169.32 117.09 162.66 115.59 154.99 C 115.23 150.39 114.94 145.46 117.10 141.23 C 119.59 135.36 124.55 130.89 130.49 128.66 Z"
     fill="#003770"
     id="path16" />
  <path
     d="M 132.48 140.34 C 136.62 138.41 142.62 138.71 146.02 142.06 C 149.53 145.11 150.38 150.43 148.87 154.69 C 147.25 159.08 142.69 162.14 138.08 162.33 C 133.38 162.09 128.61 159.06 127.16 154.44 C 125.29 149.18 127.37 142.88 132.48 140.34 Z"
     fill="#000000"
     id="path18" />
  <path
     d="M 324.81 149.83 C 330.16 150.50 335.51 150.43 340.89 150.63 C 342.75 150.71 345.04 151.17 346.03 152.92 C 347.97 155.96 346.76 159.68 346.84 163.05 C 346.89 166.49 350.11 168.64 349.84 172.28 C 349.65 187.92 347.97 203.58 347.27 219.19 C 335.50 219.20 323.73 219.18 311.96 219.21 C 309.21 219.22 306.49 219.01 303.77 218.71 C 301.84 201.20 299.13 183.75 297.21 166.23 C 301.11 166.25 305.01 166.57 308.91 166.53 C 310.47 166.55 311.82 165.99 313.01 165.00 C 315.44 161.35 314.10 155.89 315.80 151.80 C 318.04 148.62 321.50 149.72 324.81 149.83 Z"
     fill="#000000"
     id="path20" />
  <path
     d="M 462.94 157.78 C 462.75 166.34 460.62 174.67 459.56 183.20 C 453.19 182.04 446.87 180.66 440.53 179.32 C 435.75 178.35 430.36 177.25 425.95 180.02 C 422.07 182.41 420.83 186.21 419.79 190.40 C 417.61 199.85 415.54 209.33 413.50 218.82 C 408.19 219.35 402.91 219.21 397.58 219.16 C 397.83 209.10 398.97 199.06 399.48 189.01 C 399.79 183.90 399.33 178.41 400.51 173.42 C 401.65 171.16 403.81 169.34 405.31 167.28 C 409.37 161.89 415.30 158.39 421.79 156.76 C 434.81 152.91 449.90 154.78 462.94 157.78 Z"
     fill="#000000"
     id="path22" />
  <path
     d="M 361.68 170.23 C 370.72 170.17 379.65 171.51 388.70 171.57 C 388.84 178.76 388.12 185.82 387.63 192.97 C 387.85 201.68 386.18 210.18 386.18 218.89 C 377.24 219.51 368.22 219.04 359.25 219.23 C 359.35 211.09 359.39 202.98 360.37 194.89 C 360.60 186.65 361.40 178.46 361.68 170.23 Z"
     fill="#000000"
     id="path24" />
  <path
     d="M 431.92 189.46 C 435.35 189.46 438.80 190.67 442.15 191.31 C 458.59 195.17 475.32 198.14 491.65 202.40 C 490.59 206.58 489.64 210.78 488.62 214.97 C 488.20 216.20 487.96 218.04 486.83 218.80 C 482.52 219.61 477.92 219.10 473.54 219.19 C 473.54 217.02 473.87 214.65 473.36 212.52 C 471.86 208.68 465.78 207.96 463.56 211.43 C 462.36 213.81 461.89 216.61 461.17 219.17 C 456.82 219.21 452.46 219.24 448.11 219.20 C 448.37 216.33 448.94 213.53 449.39 210.69 C 449.97 208.34 448.00 206.08 446.09 205.00 C 443.15 203.46 439.46 205.12 438.46 208.22 C 437.40 211.69 436.84 215.32 436.11 218.88 C 432.50 219.21 428.88 219.25 425.26 219.20 C 426.14 213.42 427.78 207.84 428.86 202.10 C 429.80 197.88 430.59 193.57 431.92 189.46 Z"
     fill=""
     id="path26" />
  <path
     d="M 277.74 230.53 C 362.30 230.48 446.89 230.48 531.46 230.54 C 531.57 274.04 531.43 317.55 531.53 361.05 C 531.49 363.17 531.57 365.58 530.87 367.60 C 529.54 371.74 525.56 375.01 521.06 374.63 C 439.97 374.56 358.84 374.70 277.76 374.55 C 277.67 326.55 277.72 278.54 277.74 230.53 Z"
     fill="#000000"
     id="path28" />
  <path
     d="m 135.19351,206.23872 c 7.9572,-0.17102 15.95665,1.04419 23.48934,3.62551 12.06356,4.10234 22.88174,11.69336 30.8832,21.60617 5.76218,7.10616 10.06169,15.37722 12.54442,24.18347 3.90114,-5.40608 7.12628,-11.33928 9.93493,-17.37709 -0.17101,2.42639 -0.47481,4.79645 -1.18301,7.13029 -0.92952,3.0682 -2.1749,6.0841 -3.48064,9.01147 -2.43244,5.39399 -5.2069,10.63709 -8.18255,15.74943 -3.09838,5.29742 -6.32151,10.3856 -10.18039,15.172 -2.05621,2.51895 -4.19288,4.89302 -6.66354,7.01561 -1.96767,1.68399 -4.21701,3.28147 -6.63535,4.23312 -1.853,0.73838 -3.84683,1.03413 -5.82255,0.674 -2.60143,-0.43257 -4.80651,-1.83287 -6.69773,-3.61747 -2.67185,-2.53905 -4.82462,-5.80241 -6.77419,-8.91488 -4.48661,-7.29729 -8.21472,-14.78168 -13.822,-21.39291 -3.87296,-4.53288 -8.44206,-8.2932 -14.02318,-10.51638 -4.50874,-1.82885 -9.27301,-2.36402 -14.10769,-2.19703 -6.19476,0.18711 -12.29495,1.86506 -17.755334,4.78841 -6.068003,3.22513 -11.278913,7.83447 -15.803758,12.96491 -4.307555,4.85278 -8.023597,10.13008 -11.691357,15.46775 -1.297694,1.91737 -2.430418,3.95546 -3.400164,6.05593 -1.621622,3.55106 -2.846892,7.41398 -2.474685,11.36542 -3.102409,-4.09228 -3.929308,-9.39775 -2.987728,-14.37528 1.072363,-5.71188 4.305545,-10.97511 8.011533,-15.36515 0.189124,-0.23942 0.354095,-0.45269 0.360135,-0.77258 0.384279,-7.7882 2.120582,-15.51605 5.126405,-22.71072 3.263367,-7.82442 8.011533,-15.01106 13.904495,-21.1032 5.637437,-5.83058 12.335168,-10.64917 19.658608,-14.13787 8.65536,-4.13452 18.1859,-6.36778 27.77278,-6.56293 z"
     fill="#f2a41f"
     id="path1181"
     style="stroke-width:0.201194" />
  <path
     d="m 205.20193,268.6228 c 0.0222,0.70819 -0.0181,1.41841 -0.0201,2.12661 0.0885,7.44618 -0.76656,15.00904 -2.7805,22.18763 -2.87908,10.39566 -8.37568,20.02278 -15.9466,27.7144 -3.96351,4.11442 -8.3777,7.8546 -13.16811,10.97511 -7.99543,5.23707 -17.16986,8.62919 -26.66619,9.75386 -2.18698,0.21931 -4.37998,0.31186 -6.575,0.39032 h -2.06023 c -5.80243,-0.0544 -11.58674,-0.70619 -17.22417,-2.09443 -6.94522,-1.70209 -13.62686,-4.50472 -19.69083,-8.29319 -7.43008,-4.66165 -14.02923,-10.74977 -19.105335,-17.91226 -0.676012,-0.91543 -1.219239,-1.91336 -1.911344,-2.81269 1.637716,-1.14681 3.084297,-2.59338 4.420226,-4.07215 2.028027,-2.28154 3.472596,-4.85682 4.977527,-7.49245 3.289513,-5.70585 6.48245,-11.67929 10.37354,-16.98476 2.782506,-3.78243 6.065986,-7.40996 10.216606,-9.70759 3.19898,-1.78057 6.78023,-2.52096 10.41982,-2.55917 2.49481,0.0242 4.85682,0.87116 6.93716,2.21715 3.14867,2.01394 5.79035,4.87491 8.18254,7.71577 5.35777,6.44422 10.00334,13.75559 15.9466,19.65861 3.46857,3.38609 7.29124,6.21689 11.93681,7.75601 4.39004,1.45061 9.20058,1.55926 13.58659,0.0363 4.26329,-1.45664 7.84857,-4.14459 10.94494,-7.3657 2.79658,-2.87304 5.17469,-6.21286 7.27918,-9.61705 3.57923,-5.87083 6.46032,-12.25471 8.85452,-18.69289 0.3682,-0.97378 0.68407,-1.96164 1.07237,-2.92737 z"
     fill="#00abc5"
     id="path1183"
     style="stroke-width:0.201194" />
</svg>
