<?xml version="1.0" encoding="UTF-8" standalone="no"?>
<!DOCTYPE svg PUBLIC "-//W3C//DTD SVG 1.1//EN" "http://www.w3.org/Graphics/SVG/1.1/DTD/svg11.dtd">
<svg xmlns="http://www.w3.org/2000/svg" version="1.1" viewBox="0 0 1024 1024" width="1024.0pt" height="1024.0pt">
<!-- <path d="M 0.00 0.00 L 1024.00 0.00 L 1024.00 1024.00 L 0.00 1024.00 L 0.00 0.00 Z" fill="#ffffff" /> -->
<path d="M 366.33 113.73 C 418.87 113.89 471.60 113.72 524.15 113.82 C 526.01 113.81 526.33 115.36 526.22 116.92 C 526.23 169.16 526.13 221.42 526.27 273.66 C 524.19 273.94 522.10 274.12 520.00 274.10 C 468.70 273.96 417.33 274.24 366.04 273.97 C 365.83 268.96 365.96 264.01 365.92 259.00 C 365.93 214.00 365.93 169.00 365.92 124.00 C 365.87 120.56 365.83 117.15 366.33 113.73 Z" fill="#a5a5a5" />
<!-- <path d="M 398.21 146.07 C 430.11 146.08 462.02 146.08 493.93 146.07 C 493.92 177.98 493.92 209.89 493.93 241.79 C 462.02 241.79 430.11 241.79 398.21 241.79 C 398.21 209.89 398.21 177.98 398.21 146.07 Z" fill="#ffffff" /> -->
<path d="M 431.82 320.13 C 442.56 319.92 453.44 319.92 464.18 320.13 C 464.14 336.68 464.17 353.24 464.16 369.79 C 590.44 369.80 716.72 369.79 843.00 369.80 C 844.47 369.78 845.95 369.75 847.42 369.69 C 848.61 372.82 848.08 375.72 848.16 379.00 C 848.17 487.29 848.14 595.58 848.18 703.87 C 837.44 704.08 826.56 704.08 815.82 703.87 C 815.86 603.28 815.83 502.67 815.84 402.07 C 698.61 402.07 581.39 402.08 464.16 402.07 C 464.17 417.34 464.14 432.61 464.18 447.87 C 453.44 448.08 442.56 448.08 431.82 447.87 C 431.86 432.61 431.83 417.34 431.84 402.07 C 357.28 402.08 282.72 402.08 208.16 402.07 C 208.17 417.34 208.14 432.61 208.18 447.87 C 197.44 448.08 186.56 448.08 175.82 447.87 C 175.86 424.92 175.83 401.96 175.84 379.00 C 175.91 375.73 175.40 372.82 176.57 369.69 C 180.05 369.83 183.52 369.80 187.00 369.79 C 268.61 369.79 350.23 369.79 431.84 369.79 C 431.83 353.24 431.86 336.68 431.82 320.13 Z" fill="#a5a5a5" />
<path d="M 112.00 496.00 C 115.35 495.79 118.65 495.81 122.00 495.84 C 171.36 495.85 220.74 495.82 270.09 495.85 C 270.90 495.75 271.56 496.09 272.07 496.88 C 272.28 499.24 272.16 501.64 272.17 504.00 C 272.14 554.02 272.18 604.07 272.15 654.09 C 272.25 654.90 271.91 655.56 271.11 656.07 C 268.76 656.28 266.36 656.16 264.00 656.17 C 213.97 656.14 163.93 656.18 113.91 656.15 C 113.10 656.25 112.44 655.91 111.93 655.11 C 111.70 652.43 111.86 649.70 111.84 647.00 C 111.84 600.00 111.84 553.00 111.84 506.00 C 111.81 502.65 111.79 499.35 112.00 496.00 Z" fill="#a5a5a5" />
<path d="M 366.38 495.75 C 416.23 495.96 466.14 495.78 516.00 495.84 C 519.49 495.96 523.11 495.33 526.31 496.58 C 526.09 504.71 526.26 512.86 526.21 521.00 C 526.27 565.79 526.07 610.64 526.31 655.43 C 525.24 655.81 524.15 656.05 523.05 656.16 C 470.84 656.22 418.57 656.04 366.37 656.25 C 365.77 653.17 365.89 650.11 365.92 647.00 C 365.93 600.00 365.92 553.00 365.93 506.00 C 365.93 502.53 365.69 499.19 366.38 495.75 Z" fill="#a5a5a5" />
<!-- <path d="M 144.24 528.24 C 175.99 528.06 208.05 528.21 239.84 528.16 C 239.84 560.05 239.84 591.95 239.84 623.84 C 207.95 623.84 176.05 623.84 144.16 623.84 C 144.21 592.05 144.06 559.99 144.24 528.24 Z" fill="#ffffff" />
<path d="M 398.28 528.24 C 430.05 528.06 462.13 528.21 493.93 528.16 C 493.93 560.05 493.93 591.95 493.93 623.84 C 462.02 623.84 430.11 623.84 398.21 623.84 C 398.26 592.05 398.10 559.99 398.28 528.24 Z" fill="#ffffff" /> -->
<path d="M 752.00 752.00 C 755.35 751.79 758.65 751.81 762.00 751.84 C 811.36 751.85 860.73 751.82 910.09 751.85 C 910.90 751.75 911.56 752.09 912.07 752.89 C 912.28 755.24 912.16 757.64 912.17 760.00 C 912.14 810.03 912.18 860.07 912.15 910.09 C 912.25 910.90 911.91 911.56 911.12 912.07 C 908.76 912.28 906.36 912.16 904.00 912.17 C 853.97 912.14 803.93 912.18 753.91 912.15 C 753.10 912.25 752.44 911.91 751.93 911.12 C 751.70 908.43 751.86 905.70 751.84 903.00 C 751.84 856.00 751.84 809.00 751.84 762.00 C 751.81 758.65 751.79 755.35 752.00 752.00 Z" fill="#a5a5a5" />
<!-- <path d="M 784.24 784.24 C 815.99 784.06 848.05 784.21 879.84 784.16 C 879.84 816.05 879.84 847.95 879.84 879.84 C 847.95 879.84 816.05 879.84 784.16 879.84 C 784.21 848.05 784.06 815.99 784.24 784.24 Z" fill="#ffffff" /> -->
</svg>