<?xml version="1.0" encoding="UTF-8" standalone="no"?>
<svg
   version="1.1"
   viewBox="0 0 260 260"
   width="260"
   height="260"
   id="svg52936"
   xmlns="http://www.w3.org/2000/svg"
   xmlns:svg="http://www.w3.org/2000/svg">
  <defs
     id="defs52940" />
  <path
     d="m 144.06352,231.38916 c 19.44885,-4.43047 38.07332,-13.60367 53.67427,-26.22073 17.06925,-13.75344 30.27445,-31.42115 38.42498,-50.62016 8.1852,-19.21934 11.23118,-39.84145 8.70632,-59.356522 -2.47228,-19.593623 -10.72911,-37.699866 -23.33489,-52.585869 -3.00077,2.328683 -5.99258,4.650426 -8.98566,6.979487 11.19764,13.265259 18.68937,29.28125 21.10825,46.687633 2.60525,18.139021 -0.12677,37.389431 -7.74489,55.308901 -8.06866,19.04073 -21.60665,36.41862 -39.15562,49.32872 -13.39914,9.89389 -28.94401,17.05237 -45.07875,20.6017 -20.13499,4.46971 -40.97033,3.38374 -59.225608,-3.03372 C 65.316995,212.49392 50.620436,201.82011 40.836387,187.60015 33.455752,176.93309 28.929719,164.42442 27.828478,151.25424 26.303342,133.78216 30.692745,115.33849 40.280362,99.09015 47.816339,86.281076 58.565864,74.947458 71.529228,66.588876 83.773262,58.644266 97.831742,53.499575 112.04992,51.831639 c 24.91731,-2.98904 49.71813,4.555076 65.44256,21.059394 8.96824,9.38168 14.72168,21.428136 16.14225,34.466797 1.64667,14.58514 -2.02,30.14261 -10.38253,43.626 -6.41522,10.37836 -15.58683,19.39282 -26.55449,25.6821 -19.93461,11.66082 -44.97702,12.87967 -63.639169,3.10585 -9.409026,-4.86502 -16.923207,-12.43912 -21.136069,-21.77327 -4.249921,-9.25479 -4.987477,-20.08926 -2.169014,-30.48637 2.928504,-10.90082 9.691062,-21.21005 19.432867,-28.454043 9.05363,-6.784202 20.387205,-10.523619 31.336805,-10.031328 12.86796,0.507676 24.66386,6.614682 30.09243,17.235131 5.2143,10.00452 3.54214,23.22691 -4.90605,32.75754 -5.14895,5.82947 -12.87327,9.78753 -20.62026,9.74432 -6.34318,0.0127 -12.61906,-2.59114 -15.53124,-7.72684 -2.53005,-4.17915 -1.83463,-10.35834 2.31048,-14.16447 1.87415,-1.54408 3.35876,-1.59478 5.40686,-0.83481 0.45311,-1.40895 0.88662,-1.97755 1.31615,-1.70501 1.84357,2.67596 3.197,5.65928 4.9351,8.40371 2.12847,-1.79694 4.14381,-3.20842 4.82733,-5.91208 1.22123,-4.83163 -2.25032,-8.66706 -6.35341,-10.60061 -5.97387,-2.86174 -14.07004,-0.14756 -18.74912,4.85686 -7.128186,7.53057 -8.173435,18.37864 -3.335407,26.12056 6.160867,10.22193 20.186277,14.0352 32.915587,10.85314 8.88397,-2.20957 16.98923,-7.56546 22.60103,-14.63364 6.25863,-7.83271 9.46895,-17.42034 9.27904,-26.62576 -0.1713,-10.2672 -4.73983,-19.803748 -12.25302,-26.565955 C 138.54842,77.660971 115.95905,75.195129 96.71204,83.31112 86.367805,87.609595 77.191451,94.653301 70.442246,103.29527 c -9.057393,11.52951 -13.771881,25.55081 -13.469036,39.0498 0.337716,20.29056 12.476408,38.11994 30.850082,47.11906 14.116968,7.05045 31.346608,9.03242 48.040778,5.68097 13.84841,-2.74193 27.12331,-9.18808 38.09821,-18.24459 19.19281,-15.79423 30.42663,-38.80117 31.13306,-61.34918 0.5058,-14.43249 -3.3842,-28.414694 -11.08675,-40.116475 C 185.9017,62.996834 173.69688,53.363619 159.30789,47.53198 143.11459,40.930506 124.32995,39.135957 105.93901,42.409324 90.190416,45.166275 74.869883,51.701339 61.695648,61.104686 46.527837,71.883705 34.459175,86.302272 26.681653,102.28748 c -8.626831,17.65467 -11.963216,37.05917 -9.447969,55.26743 2.222498,16.45919 9.297033,31.76784 20.15268,44.11548 12.061675,13.78108 28.626669,23.67074 47.291721,28.79514 18.703925,5.17065 39.383835,5.52555 59.385435,0.92363 z"
     fill="#000000"
     id="path52934"
     style="fill:#bab9bb;fill-opacity:1;stroke-width:0.7559" />
</svg>
