<?xml version="1.0" encoding="UTF-8" standalone="no"?>
<!DOCTYPE svg PUBLIC "-//W3C//DTD SVG 1.1//EN" "http://www.w3.org/Graphics/SVG/1.1/DTD/svg11.dtd">
<svg xmlns="http://www.w3.org/2000/svg" version="1.1" viewBox="0 0 249 219" width="249.0pt" height="219.0pt">

<path d="M 115.51 11.82 C 132.33 8.88 150.38 15.57 161.41 28.56 C 167.73 35.73 171.50 44.62 173.10 53.98 C 174.89 65.68 171.97 77.79 165.75 87.78 C 159.16 98.06 148.83 105.83 137.01 109.04 C 118.22 114.77 96.89 107.45 84.79 92.18 C 76.28 81.62 72.24 67.41 74.25 53.97 C 75.79 44.71 79.59 35.91 85.76 28.78 C 93.33 19.77 103.98 13.95 115.51 11.82 Z" fill="#2ad4ff" />
<path d="M 102.67 28.57 C 114.56 28.89 128.92 27.16 139.92 32.05 C 147.19 35.07 152.01 41.55 153.62 49.16 C 155.40 57.74 155.25 67.55 151.65 75.64 C 148.62 82.40 142.50 86.67 135.49 88.59 C 125.24 91.47 113.30 90.23 102.67 90.50 C 102.66 69.85 102.66 49.21 102.67 28.57 Z" fill="#000000" />
<path d="M 111.04 35.48 C 118.83 35.61 127.72 34.63 134.95 37.94 C 139.84 40.07 143.24 44.39 144.64 49.48 C 146.22 55.42 146.25 61.97 145.03 67.98 C 143.90 73.41 140.81 78.24 135.75 80.75 C 128.30 84.52 119.16 83.47 111.05 83.62 C 111.03 67.58 111.05 51.53 111.04 35.48 Z" fill="#2ad4ff" />
<path d="M 56.52 107.70 C 74.12 103.57 93.35 110.27 105.00 123.98 C 111.35 131.19 115.08 140.10 116.66 149.52 C 118.38 161.25 115.46 173.26 109.20 183.25 C 102.69 193.32 92.64 200.99 81.05 204.23 C 71.19 207.35 60.49 206.93 50.79 203.42 C 31.89 197.03 18.41 178.89 17.35 159.03 C 16.62 146.04 21.45 132.77 30.15 123.13 C 37.10 115.39 46.39 110.03 56.52 107.70 Z" fill="#2ad4ff" />
<path d="M 171.52 110.75 C 189.16 106.52 208.97 113.60 220.40 127.57 C 226.53 134.76 230.13 143.55 231.63 152.82 C 233.25 164.14 230.48 175.86 224.57 185.58 C 218.04 196.16 207.53 204.17 195.52 207.43 C 176.75 213.17 155.41 205.90 143.32 190.63 C 134.69 179.97 130.61 165.56 132.78 151.97 C 134.30 143.34 137.73 135.13 143.28 128.32 C 150.35 119.37 160.45 113.29 171.52 110.75 Z" fill="#2ad4ff" />
<path d="M 159.84 127.31 C 167.87 127.43 175.98 127.00 183.99 127.67 C 192.10 128.51 200.27 130.82 205.58 137.43 C 211.34 144.63 212.00 155.20 211.10 164.01 C 210.20 172.52 206.33 180.44 198.45 184.45 C 187.17 190.35 172.24 188.40 159.83 188.75 C 159.82 168.27 159.81 147.79 159.84 127.31 Z" fill="#00222b" />
<path d="M 45.64 127.85 C 56.47 128.14 69.36 126.64 79.50 130.63 C 85.79 132.96 90.67 137.77 92.79 144.17 C 95.28 151.78 95.31 160.51 93.30 168.24 C 91.46 175.07 86.79 180.59 80.16 183.19 C 69.88 187.52 56.70 185.94 45.64 186.25 C 45.63 166.78 45.63 147.31 45.64 127.85 Z" fill="#000000" />
<path d="M 76.23 136.76 C 80.85 138.82 83.97 142.95 85.26 147.77 C 86.69 153.28 86.70 159.26 85.62 164.84 C 84.55 169.97 81.75 174.57 76.97 176.98 C 69.97 180.61 61.22 179.58 53.57 179.77 C 53.49 164.64 53.58 149.50 53.53 134.37 C 60.88 134.44 69.43 133.59 76.23 136.76 Z" fill="#2ad4ff" />
<path d="M 168.24 134.26 C 175.31 134.11 183.24 133.59 190.02 135.90 C 195.02 137.57 198.96 141.20 200.80 146.17 C 203.06 152.40 203.14 159.52 201.92 165.98 C 200.86 171.43 197.96 176.33 192.91 178.92 C 185.31 182.90 176.41 181.73 168.13 181.90 C 168.22 166.04 167.98 150.11 168.24 134.26 Z" fill="#2ad4ff" />
</svg>