<?xml version="1.0" encoding="UTF-8" standalone="no"?>
<!DOCTYPE svg PUBLIC "-//W3C//DTD SVG 1.1//EN" "http://www.w3.org/Graphics/SVG/1.1/DTD/svg11.dtd">
<svg xmlns="http://www.w3.org/2000/svg" version="1.1" viewBox="0 0 665 661" width="665.0pt" height="661.0pt">

<path d="M 391.24 5.86 C 453.52 16.90 512.32 46.28 558.62 89.38 C 589.80 118.21 615.40 153.12 633.41 191.58 C 651.37 229.63 661.64 271.10 663.97 313.10 C 667.05 370.16 655.37 427.91 630.23 479.23 C 609.74 521.27 580.25 559.36 543.94 588.92 C 516.25 611.43 484.62 628.98 450.02 638.21 C 446.20 639.17 442.36 639.42 438.99 637.01 C 435.26 634.32 434.28 629.53 432.59 625.49 C 409.62 566.41 386.62 507.33 363.63 448.25 C 362.06 443.93 359.48 439.79 360.44 435.04 C 361.28 430.73 364.51 428.02 368.51 426.63 C 385.68 420.08 401.36 410.41 412.37 395.39 C 423.04 380.88 427.70 363.76 429.39 346.03 C 430.07 337.00 430.42 328.04 429.23 319.03 C 424.76 285.93 402.03 256.72 371.48 243.50 C 340.85 230.02 303.67 234.24 276.33 253.31 C 258.46 265.73 244.89 284.02 238.94 305.02 C 234.26 320.92 234.94 336.81 237.32 353.02 C 240.09 369.65 245.76 385.44 255.99 398.98 C 266.27 412.64 280.79 422.64 297.00 427.95 C 300.95 429.17 304.36 431.10 305.84 435.19 C 307.82 440.28 305.03 444.63 303.25 449.26 C 278.68 509.68 254.10 570.10 229.55 630.53 C 228.47 633.05 227.19 635.32 224.80 636.82 C 221.88 638.71 218.50 638.82 215.22 637.92 C 203.86 634.91 192.75 630.85 182.03 626.05 C 147.35 610.44 116.17 586.40 90.45 558.53 C 51.77 516.57 24.01 464.71 10.47 409.28 C -5.16 345.35 -1.21 276.63 21.87 214.98 C 39.23 168.30 67.37 125.75 103.46 91.45 C 135.14 61.21 172.90 37.44 213.86 21.95 C 270.13 0.62 332.04 -4.81 391.24 5.86 Z" fill="#1b521b" />
<path d="M 412.97 33.07 C 447.74 42.45 481.01 57.81 510.47 78.54 C 546.30 103.61 576.88 136.22 599.24 173.83 C 622.95 213.22 637.42 258.20 641.36 303.99 C 646.95 366.83 633.04 431.10 602.00 486.01 C 576.87 530.68 540.22 569.98 495.71 595.73 C 481.86 603.58 467.16 610.27 451.89 614.84 C 429.70 557.73 407.52 500.61 385.24 443.54 C 391.20 440.44 397.19 437.53 402.81 433.82 C 415.11 425.72 425.96 415.34 433.79 402.82 C 444.91 385.52 450.23 364.17 451.46 343.80 C 452.12 331.61 452.04 319.57 449.38 307.60 C 442.54 274.89 420.71 245.76 391.74 229.28 C 376.25 220.38 358.82 215.14 340.99 213.95 C 320.03 212.73 298.86 216.81 279.96 225.97 C 256.61 237.18 237.08 256.35 225.50 279.52 C 217.21 296.05 213.12 314.52 213.65 333.00 C 214.11 354.64 218.45 377.06 228.62 396.32 C 236.09 411.08 247.03 423.89 260.44 433.58 C 266.85 438.42 273.93 441.91 281.08 445.49 C 271.96 468.47 262.52 491.32 253.21 514.23 C 239.67 547.53 226.15 580.84 212.60 614.14 C 204.67 612.22 197.03 608.71 189.55 605.49 C 163.83 593.57 140.22 576.78 119.78 557.20 C 115.51 553.39 111.60 549.42 107.82 545.13 C 55.75 489.36 24.59 414.38 22.99 338.00 C 21.51 276.74 38.52 215.28 71.83 163.81 C 106.35 109.80 158.15 67.23 217.85 43.88 C 279.45 19.50 349.05 15.86 412.97 33.07 Z" fill="#3ea538" />

</svg>