<?xml version="1.0" encoding="UTF-8" standalone="no"?>
<!DOCTYPE svg PUBLIC "-//W3C//DTD SVG 1.1//EN" "http://www.w3.org/Graphics/SVG/1.1/DTD/svg11.dtd">
<svg xmlns="http://www.w3.org/2000/svg" version="1.1" viewBox="0 0 426 420" width="426.0pt" height="420.0pt">

<path d="M 157.64 6.10 C 160.21 6.42 161.40 8.21 163.12 9.91 C 169.69 16.99 176.72 23.62 183.35 30.64 C 191.13 39.48 200.04 47.20 207.80 56.07 C 203.54 61.08 198.64 65.35 194.09 70.09 C 181.56 82.90 168.51 95.17 156.06 108.06 C 154.17 110.04 152.08 111.75 149.82 113.29 C 148.98 105.84 150.94 98.68 150.43 91.22 C 145.60 92.43 141.14 94.45 136.76 96.77 C 113.64 108.42 92.14 127.18 80.71 150.73 C 73.83 164.15 70.29 178.97 69.58 194.00 C 69.60 200.33 69.34 206.72 69.85 213.03 C 70.96 222.83 72.37 232.53 75.23 241.99 C 75.88 244.68 77.18 248.13 76.36 250.85 C 74.33 252.46 71.50 253.23 69.09 254.16 C 55.22 259.13 41.71 265.16 27.77 269.91 C 25.33 263.25 23.93 256.39 22.44 249.48 C 20.71 240.78 18.67 231.82 18.29 223.00 C 17.20 213.61 17.48 204.44 17.46 195.00 C 17.36 182.86 19.17 170.79 21.90 158.98 C 29.06 128.05 46.14 99.89 69.77 78.76 C 80.54 69.29 92.21 60.57 104.85 53.75 C 120.97 44.68 138.36 37.45 156.33 33.00 C 156.98 23.85 155.94 14.92 157.64 6.10 Z" fill="#a24342" />
<path d="M 161.86 15.31 C 168.78 20.76 174.27 28.26 180.61 34.39 C 186.89 40.46 192.64 47.03 199.04 52.98 C 200.02 54.13 202.20 55.67 201.32 57.39 C 198.88 60.47 195.26 62.67 192.49 65.49 C 184.15 73.82 175.87 82.20 167.48 90.49 C 163.19 94.65 159.39 99.13 154.64 102.81 C 154.25 96.97 154.89 91.23 155.31 85.41 C 148.84 86.09 143.63 88.99 137.82 91.64 C 131.26 94.88 124.49 98.25 118.57 102.56 C 113.09 106.55 107.70 110.06 102.93 114.92 C 97.06 121.00 90.95 126.22 86.27 133.35 C 72.24 152.89 64.83 176.96 65.43 201.00 C 65.08 213.80 67.09 226.25 70.19 238.63 C 71.04 241.91 71.51 245.23 71.79 248.59 C 59.60 253.48 47.26 257.92 35.10 262.88 C 33.81 263.33 30.22 264.49 29.78 262.45 C 25.77 248.17 23.58 233.85 22.14 219.13 C 21.07 211.27 21.56 202.99 21.44 195.00 C 21.32 187.25 22.47 179.93 23.51 172.21 C 26.10 154.24 32.31 136.76 41.10 120.90 C 46.94 111.09 53.60 101.65 61.19 93.11 C 75.49 77.27 93.13 65.17 111.63 54.74 C 118.21 51.17 125.17 48.26 132.05 45.30 C 141.22 41.47 150.76 38.99 160.22 36.04 C 161.08 29.16 160.66 22.10 161.86 15.31 Z" fill="#e7bab8" />
<path d="M 244.80 28.56 C 247.43 28.10 250.09 28.66 252.64 29.30 C 263.08 32.16 273.41 35.36 283.46 39.39 C 303.40 47.01 322.22 57.76 338.79 71.23 C 345.48 76.81 351.68 83.02 357.50 89.50 C 372.74 107.04 383.83 127.96 389.87 150.39 C 392.40 158.78 393.75 167.38 395.07 176.01 C 395.97 182.57 395.37 189.37 395.97 195.90 C 396.88 203.56 396.61 211.13 395.68 218.77 C 395.46 225.48 394.42 232.05 393.36 238.66 C 392.59 244.56 390.60 250.09 390.24 256.05 C 397.43 260.45 404.76 264.59 411.90 269.07 C 411.77 269.83 411.64 270.58 411.51 271.34 C 406.17 272.68 400.85 274.08 395.55 275.57 C 382.84 279.35 369.96 282.51 357.22 286.17 C 353.26 287.22 349.27 288.68 345.21 289.27 C 343.76 288.56 343.58 287.42 343.10 286.01 C 337.99 266.87 332.34 247.90 327.15 228.77 C 325.54 222.63 322.81 217.64 323.45 211.11 C 330.01 214.32 335.34 219.94 342.23 222.03 C 342.75 217.35 343.52 212.74 343.48 208.00 C 343.54 200.12 343.81 191.90 342.50 184.17 C 341.05 175.07 339.42 165.51 336.14 156.88 C 332.32 146.21 326.87 136.03 319.96 127.04 C 306.47 109.56 288.08 97.56 267.66 89.60 C 259.34 86.46 251.03 83.58 242.19 82.27 C 239.81 81.81 238.05 80.82 238.41 78.05 C 239.03 68.21 241.86 58.70 241.55 48.70 C 241.85 48.92 242.15 49.14 242.45 49.36 C 242.99 42.40 244.01 35.48 244.80 28.56 Z" fill="#5b7036" />
<path d="M 253.31 33.82 C 273.39 39.37 292.83 46.88 310.98 57.15 C 321.36 63.67 332.14 70.54 341.07 78.91 C 345.30 82.42 349.22 86.06 352.61 90.42 C 361.63 100.40 369.35 111.69 375.17 123.83 C 384.20 141.23 389.09 161.11 391.33 180.51 C 393.08 190.08 392.25 199.34 392.46 209.00 C 392.64 215.79 391.22 222.21 390.50 228.91 C 389.63 237.09 387.90 245.10 385.84 253.05 C 385.65 254.49 384.70 256.84 386.03 257.95 C 389.94 261.72 395.77 264.13 400.40 266.86 C 401.33 267.37 401.43 269.00 401.85 269.92 C 389.66 272.45 377.78 276.45 365.71 279.49 C 359.22 281.04 353.52 283.69 346.72 283.74 C 344.06 273.19 340.91 262.76 338.07 252.25 C 335.17 241.49 331.67 231.07 329.20 220.23 C 334.43 222.87 339.16 226.32 344.39 228.96 C 346.90 223.43 346.58 217.87 347.31 212.00 C 348.18 203.46 347.94 195.01 346.84 186.51 C 345.16 166.59 338.74 147.18 327.56 130.56 C 320.12 118.73 310.03 109.45 298.94 101.10 C 285.45 92.13 270.48 85.28 254.87 80.97 C 250.67 79.87 246.53 78.65 242.40 77.29 C 244.54 63.19 246.26 49.06 248.32 34.96 C 248.55 32.19 251.62 33.61 253.31 33.82 Z" fill="#c3d89c" />
<path d="M 74.95 290.33 C 80.15 291.29 84.99 293.21 90.20 294.55 C 99.44 296.91 108.42 300.15 117.66 302.53 C 124.71 304.80 131.90 306.55 138.96 308.78 C 143.63 310.31 148.17 310.73 152.19 313.84 C 146.28 317.37 139.90 319.81 133.81 323.05 C 136.07 327.51 139.91 329.41 143.77 332.23 C 155.40 340.38 168.35 346.78 181.88 351.06 C 190.58 353.43 199.94 355.83 209.00 355.59 C 215.65 355.52 222.41 355.86 229.02 355.10 C 243.82 352.97 258.21 347.63 271.00 339.92 C 284.55 331.90 296.47 321.77 307.29 310.38 C 309.33 311.77 311.35 313.16 313.24 314.75 C 319.13 319.85 325.21 324.73 331.10 329.83 C 336.89 334.82 343.22 339.34 348.52 344.84 C 344.14 349.71 339.26 354.01 334.35 358.32 C 316.18 374.00 295.46 388.29 273.04 397.12 C 267.74 399.29 262.52 401.52 256.94 402.92 C 245.07 406.03 232.31 409.05 220.00 408.73 C 210.01 408.65 199.48 409.32 189.70 407.40 C 169.52 404.54 151.00 397.30 133.01 387.94 C 117.52 379.43 103.15 368.77 89.97 357.02 C 86.37 353.92 83.24 349.58 79.06 347.34 C 70.78 350.26 63.42 355.67 55.02 358.46 C 55.70 351.25 58.39 345.24 60.27 338.25 C 63.27 328.57 65.89 318.79 68.98 309.14 C 70.97 302.76 72.16 296.46 74.95 290.33 Z" fill="#3c6594" />
<path d="M 92.83 300.08 C 102.65 302.90 112.43 305.85 122.25 308.65 C 128.30 310.41 134.36 312.03 140.28 314.22 C 135.37 317.38 129.90 319.38 124.91 322.42 C 127.04 324.86 129.26 327.19 131.86 329.14 C 147.78 341.80 165.51 351.61 185.30 356.69 C 199.94 360.80 215.69 361.27 230.74 359.42 C 258.04 355.14 282.30 341.02 302.02 322.02 C 303.81 320.37 305.70 318.18 307.99 317.25 C 310.52 318.31 312.80 320.37 314.87 322.14 C 318.95 325.74 323.21 329.12 327.33 332.68 C 332.06 336.83 337.19 340.38 341.54 344.97 C 337.28 349.99 332.18 353.96 327.21 358.23 C 317.76 366.28 307.58 373.49 296.99 379.97 C 271.64 395.15 241.12 405.64 211.33 404.49 C 190.18 404.97 168.65 399.07 149.33 390.75 C 124.28 379.54 101.48 363.23 82.68 343.26 C 81.58 342.44 80.93 341.22 79.40 341.75 C 73.34 343.63 68.78 348.02 62.31 349.06 C 62.86 345.89 63.60 342.78 64.58 339.71 C 69.19 325.39 73.05 310.76 77.62 296.38 C 83.06 296.71 87.65 298.65 92.83 300.08 Z" fill="#4c81bf" />
</svg>