<?xml version="1.0" encoding="UTF-8" standalone="no"?>
<svg
   version="1.1"
   viewBox="0 0 198 230"
   width="198.0pt"
   height="230.0pt"
   id="svg8811"
   sodipodi:docname="ddd_logos_dimmed.svg"
   inkscape:version="1.2 (dc2aedaf03, 2022-05-15)"
   xmlns:inkscape="http://www.inkscape.org/namespaces/inkscape"
   xmlns:sodipodi="http://sodipodi.sourceforge.net/DTD/sodipodi-0.dtd"
   xmlns="http://www.w3.org/2000/svg"
   xmlns:svg="http://www.w3.org/2000/svg">
  <defs
     id="defs8815" />
  <sodipodi:namedview
     id="namedview8813"
     pagecolor="#ffffff"
     bordercolor="#000000"
     borderopacity="0.25"
     inkscape:showpageshadow="2"
     inkscape:pageopacity="0.0"
     inkscape:pagecheckerboard="0"
     inkscape:deskcolor="#d1d1d1"
     inkscape:document-units="pt"
     showgrid="false"
     inkscape:zoom="3.348913"
     inkscape:cx="123.4729"
     inkscape:cy="153.48264"
     inkscape:window-width="3840"
     inkscape:window-height="2054"
     inkscape:window-x="-11"
     inkscape:window-y="-11"
     inkscape:window-maximized="1"
     inkscape:current-layer="svg8811" />
  <path
     d="M 78.89 2.17 C 83.82 3.64 89.09 5.58 93.16 8.79 C 96.75 11.55 100.51 14.10 104.09 16.87 C 109.12 20.74 112.02 26.99 114.13 32.82 C 116.67 39.77 117.63 46.90 119.22 54.08 C 117.60 56.41 118.16 58.77 117.43 61.53 C 116.86 64.47 115.37 66.89 113.73 69.34 C 112.87 69.27 112.01 69.20 111.15 69.14 C 109.94 71.53 109.34 73.83 108.97 76.49 C 113.36 78.25 117.84 79.48 121.92 81.94 C 130.33 86.22 136.85 93.14 140.45 101.88 C 142.27 102.63 144.10 103.33 145.93 104.03 C 148.03 102.64 150.29 100.42 153.02 101.03 C 155.48 102.50 157.84 104.20 160.22 105.82 C 159.83 106.73 159.44 107.63 159.05 108.54 C 159.71 109.02 160.36 109.50 161.02 109.97 C 161.01 110.93 161.00 111.88 161.00 112.83 C 161.65 113.58 162.31 114.34 162.96 115.09 C 162.07 117.60 161.23 118.96 159.03 120.53 C 158.96 130.10 159.02 139.68 159.00 149.26 C 158.18 149.50 157.35 149.73 156.52 149.97 C 156.57 156.26 156.52 162.56 156.57 168.86 C 167.61 169.78 178.34 172.50 188.05 177.94 C 197.77 182.78 199.46 198.26 191.44 205.39 C 186.50 210.13 179.30 212.78 172.80 214.53 C 166.53 215.56 160.09 216.12 153.74 216.02 C 153.76 220.41 153.71 224.80 153.80 229.19 C 138.18 229.49 122.53 229.19 106.90 229.34 C 102.53 225.02 97.72 221.03 93.79 216.30 C 84.19 216.71 74.61 217.72 65.00 218.06 C 49.92 219.04 33.93 218.25 19.49 213.47 C 14.48 211.54 8.05 209.70 4.70 205.28 C 0.81 200.42 0.71 193.95 2.45 188.22 C 3.69 184.20 6.71 181.26 10.40 179.41 C 15.72 176.84 20.36 173.78 26.21 172.44 C 29.42 171.87 31.81 170.09 34.56 168.52 C 38.10 166.40 41.60 168.89 44.12 164.79 C 40.45 162.27 36.29 160.81 32.49 158.49 C 27.73 155.66 22.91 152.80 18.53 149.40 C 16.00 147.46 14.13 144.96 13.40 141.82 C 11.79 135.30 14.21 128.89 17.26 123.20 C 23.90 111.02 30.80 98.97 38.20 87.24 C 40.83 82.19 47.21 80.20 52.41 79.16 C 50.02 77.42 47.70 75.66 44.92 74.56 C 44.81 73.40 44.70 72.23 44.61 71.06 C 43.90 70.99 43.20 70.91 42.50 70.84 C 43.05 66.48 40.92 63.40 39.47 59.53 C 36.61 51.72 33.52 44.74 33.88 36.19 C 34.20 25.81 37.87 15.74 46.26 9.23 C 49.65 6.62 53.60 6.11 57.76 6.31 C 63.87 1.91 71.55 0.10 78.89 2.17 Z"
     fill="#2d2a2a"
     id="path8687" />
  <path
     d="M 79.00 3.72 C 84.16 5.30 89.10 7.24 93.31 10.70 C 99.38 15.62 105.71 18.25 109.27 25.61 C 109.13 30.49 110.52 35.14 110.48 40.00 C 110.53 43.47 110.19 46.92 109.67 50.35 C 107.18 48.60 105.84 46.11 104.22 43.62 C 103.78 45.65 104.42 50.36 101.96 51.19 C 98.25 51.08 94.50 47.48 91.32 45.67 C 91.08 46.74 90.85 47.82 90.62 48.89 C 87.48 47.40 84.32 45.95 81.04 44.74 C 81.61 48.18 82.26 51.60 82.90 55.02 C 80.48 53.32 78.13 51.54 75.85 49.66 C 75.78 52.04 75.70 54.43 75.62 56.82 C 72.39 55.72 69.63 54.42 67.22 51.92 C 65.97 53.37 64.71 54.80 63.44 56.23 C 63.24 55.11 63.05 53.98 62.87 52.86 C 61.77 53.85 60.67 54.83 59.56 55.80 C 58.49 52.22 58.59 48.64 58.50 44.95 C 56.23 48.59 54.01 52.33 52.31 56.26 C 51.31 58.27 52.27 60.18 52.50 62.34 C 52.05 66.68 50.86 70.81 49.83 75.02 L 51.99 73.19 C 52.98 75.03 53.95 76.88 54.86 78.76 C 51.79 77.09 49.01 75.02 46.11 73.10 C 46.09 72.04 46.07 70.98 46.05 69.92 C 45.49 69.59 44.93 69.27 44.36 68.94 C 41.48 57.96 34.82 48.31 35.42 36.00 C 35.63 25.75 39.91 14.45 49.16 9.15 C 52.89 6.75 57.19 9.17 60.45 6.41 C 65.72 2.76 72.91 1.99 79.00 3.72 Z"
     fill="#fffffe"
     id="path8689" />
  <path
     d="M 67.64 15.37 C 73.07 15.28 79.58 14.08 83.98 18.04 C 88.43 21.73 92.60 26.80 94.37 32.36 C 89.61 29.00 85.53 22.81 80.02 19.97 C 75.88 18.15 71.50 17.97 67.64 15.37 Z"
     fill="#cacbca"
     id="path8691" />
  <path
     d="M 55.33 15.50 C 53.19 18.77 50.79 21.68 47.96 24.36 C 48.46 20.15 51.43 16.94 55.33 15.50 Z"
     fill="#cfd0cf"
     id="path8693" />
  <path
     d="M 62.20 15.54 C 63.29 17.01 64.31 18.37 64.52 20.25 C 65.78 28.69 67.42 37.08 69.49 45.35 C 66.68 42.86 65.72 39.68 63.91 36.52 C 63.79 38.73 63.67 40.94 63.49 43.16 C 61.55 39.92 61.91 36.61 61.85 33.00 C 61.90 27.13 61.64 21.40 62.20 15.54 Z"
     fill="#cbcccb"
     id="path8695" />
  <path
     d="M 109.27 25.61 C 113.61 33.29 115.59 42.43 116.97 51.06 C 117.01 56.28 116.43 61.97 113.90 66.64 C 111.97 66.94 110.86 67.68 109.32 68.90 C 109.70 66.52 111.04 65.25 112.42 63.48 C 113.89 60.90 113.72 57.19 113.35 54.34 C 112.39 54.97 111.43 55.59 110.47 56.22 L 110.04 53.29 C 107.70 55.25 106.07 57.73 104.46 60.30 C 102.85 58.18 101.59 56.13 99.06 54.99 C 94.99 53.22 90.69 51.92 86.46 50.62 C 87.38 54.48 91.96 56.08 95.11 57.74 C 89.83 61.06 84.75 60.11 79.12 58.47 C 79.56 60.09 80.03 61.71 80.49 63.32 C 75.22 61.41 72.04 59.43 68.02 55.54 C 68.74 58.77 69.70 61.93 70.49 65.14 C 67.74 63.14 65.31 60.82 62.91 58.42 C 62.00 60.77 61.31 63.15 60.74 65.60 C 59.06 61.81 58.53 57.69 56.98 53.88 L 56.00 54.01 C 54.45 56.57 53.56 59.56 52.50 62.34 C 52.27 60.18 51.31 58.27 52.31 56.26 C 54.01 52.33 56.23 48.59 58.50 44.95 C 58.59 48.64 58.49 52.22 59.56 55.80 C 60.67 54.83 61.77 53.85 62.87 52.86 C 63.05 53.98 63.24 55.11 63.44 56.23 C 64.71 54.80 65.97 53.37 67.22 51.92 C 69.63 54.42 72.39 55.72 75.62 56.82 C 75.70 54.43 75.78 52.04 75.85 49.66 C 78.13 51.54 80.48 53.32 82.90 55.02 C 82.26 51.60 81.61 48.18 81.04 44.74 C 84.32 45.95 87.48 47.40 90.62 48.89 C 90.85 47.82 91.08 46.74 91.32 45.67 C 94.50 47.48 98.25 51.08 101.96 51.19 C 104.42 50.36 103.78 45.65 104.22 43.62 C 105.84 46.11 107.18 48.60 109.67 50.35 C 110.19 46.92 110.53 43.47 110.48 40.00 C 110.52 35.14 109.13 30.49 109.27 25.61 Z"
     fill="#cacbca"
     id="path8697" />
  <path
     d="M 47.79 27.59 C 48.07 31.46 48.40 35.60 47.69 39.44 L 46.25 40.34 C 46.36 36.24 46.10 31.39 47.79 27.59 Z"
     fill="#dadbda"
     id="path8699" />
  <path
     d="M 91.06 53.84 C 92.14 54.10 93.21 54.38 94.27 54.68 C 96.56 55.46 99.19 56.33 100.92 58.08 C 102.55 59.74 103.03 62.07 103.80 64.19 C 105.36 61.52 107.05 58.94 108.96 56.50 C 107.50 66.59 109.53 74.51 105.55 83.42 C 104.78 78.18 104.60 73.09 104.75 67.80 C 104.20 67.75 103.65 67.70 103.10 67.65 C 102.56 66.34 102.05 64.97 101.34 63.75 C 96.56 63.59 92.61 65.08 88.50 61.70 C 92.14 61.07 94.99 59.97 97.57 57.25 C 95.31 56.27 93.10 55.24 91.06 53.84 Z"
     fill="#cbcccb"
     id="path8701" />
  <path
     d="M 112.11 56.73 C 112.03 59.71 112.24 62.19 110.04 64.49 C 109.98 62.45 109.98 60.40 110.13 58.35 C 110.78 57.80 111.45 57.26 112.11 56.73 Z"
     fill="#b5b6b5"
     id="path8703" />
  <path
     d="M 56.50 56.77 C 57.52 60.86 58.70 64.95 60.24 68.88 C 60.68 69.45 61.15 69.99 61.65 70.52 C 62.37 67.37 62.79 64.18 63.12 60.96 C 65.96 63.63 68.92 65.92 72.38 67.74 C 72.13 65.13 71.49 62.62 70.72 60.12 C 74.78 62.63 78.85 64.78 83.71 65.14 C 82.81 63.62 81.87 62.13 80.92 60.65 C 83.43 61.09 85.95 61.49 88.50 61.70 C 92.61 65.08 96.56 63.59 101.34 63.75 C 102.05 64.97 102.56 66.34 103.10 67.65 C 103.65 67.70 104.20 67.75 104.75 67.80 C 104.60 73.09 104.78 78.18 105.55 83.42 C 104.03 87.52 101.39 91.25 98.65 94.62 C 96.46 97.19 93.60 99.47 90.02 99.14 C 85.66 98.77 81.27 98.00 76.99 97.09 C 69.94 95.66 64.69 89.98 60.44 84.55 C 57.06 80.44 55.18 75.69 52.44 71.20 C 53.39 66.45 54.06 60.99 56.50 56.77 Z"
     fill="#fffffe"
     id="path8705" />
  <path
     d="M 97.85 67.52 C 100.29 68.03 97.81 70.03 97.00 70.97 C 94.03 73.84 90.66 74.32 86.67 74.04 C 90.97 72.30 94.37 70.66 97.85 67.52 Z"
     fill="#636161"
     id="path8707" />
  <path
     d="M 62.75 76.00 C 67.66 76.95 71.32 77.02 76.27 76.21 C 73.49 77.96 71.33 78.61 68.00 78.41 C 65.71 78.04 63.36 78.92 62.75 76.00 Z"
     fill="#000000"
     id="path8709" />
  <path
     d="M 109.12 78.27 C 112.78 79.25 116.34 80.79 119.74 82.45 C 119.36 89.12 116.14 94.81 115.35 101.42 C 114.65 101.78 113.86 101.99 112.96 102.04 C 113.86 98.86 115.19 96.51 113.54 93.31 C 114.69 92.41 115.83 91.53 116.91 90.55 C 116.34 89.04 113.59 89.15 112.26 88.62 C 113.11 87.06 113.95 85.49 114.81 83.93 C 112.73 82.46 110.48 81.48 108.09 80.64 C 108.40 79.82 108.74 79.04 109.12 78.27 Z"
     fill="#5e5488"
     id="path8711"
     style="fill:#5e5488;fill-opacity:0.55945945" />
  <path
     d="M 51.86 80.88 C 51.35 81.96 49.92 83.57 50.30 84.78 C 51.54 86.41 53.37 87.67 54.94 88.99 C 54.96 90.65 54.90 92.37 55.15 94.02 C 55.72 95.79 56.91 97.39 57.57 99.14 C 58.53 106.88 56.81 113.48 55.94 121.04 C 55.71 124.36 53.48 126.37 51.66 128.96 C 54.00 130.80 56.51 132.39 58.94 134.11 C 60.39 134.98 60.50 136.37 61.12 137.80 C 59.22 138.53 57.33 139.28 55.44 140.03 C 53.19 138.57 50.90 137.63 49.50 135.19 C 51.56 135.88 53.60 136.63 55.67 137.30 C 54.67 134.56 50.36 134.28 48.89 131.95 C 48.50 127.61 50.89 125.31 52.87 121.95 C 53.17 117.95 53.26 113.98 53.81 110.00 C 54.25 100.19 51.06 91.01 45.88 82.79 C 47.83 81.98 49.77 81.23 51.86 80.88 Z"
     fill="#5e5487"
     id="path8713"
     style="fill:#5e5487;fill-opacity:0.45675677" />
  <path
     d="M 51.86 80.88 C 53.20 80.73 54.54 80.63 55.89 80.55 C 61.60 89.33 68.80 98.12 79.97 99.25 C 84.67 99.73 91.20 102.31 95.34 99.32 C 99.23 97.11 102.97 95.39 105.69 91.65 C 108.21 88.36 107.77 84.54 108.09 80.64 C 110.48 81.48 112.73 82.46 114.81 83.93 C 113.95 85.49 113.11 87.06 112.26 88.62 C 113.59 89.15 116.34 89.04 116.91 90.55 C 115.83 91.53 114.69 92.41 113.54 93.31 C 115.19 96.51 113.86 98.86 112.96 102.04 C 107.92 101.96 102.89 101.95 97.85 102.02 C 97.81 104.27 97.77 106.52 97.68 108.77 C 96.50 111.72 95.09 114.25 94.71 117.48 C 93.99 125.76 93.68 133.79 96.52 141.75 C 93.83 142.41 90.52 142.24 89.33 145.28 C 88.16 149.09 88.15 153.75 89.00 157.63 L 90.95 158.23 C 87.18 158.78 82.74 160.13 78.99 159.30 C 77.65 158.61 76.56 157.59 75.45 156.58 C 69.10 150.59 62.74 144.86 55.44 140.03 C 57.33 139.28 59.22 138.53 61.12 137.80 C 60.50 136.37 60.39 134.98 58.94 134.11 C 56.51 132.39 54.00 130.80 51.66 128.96 C 53.48 126.37 55.71 124.36 55.94 121.04 C 56.81 113.48 58.53 106.88 57.57 99.14 C 56.91 97.39 55.72 95.79 55.15 94.02 C 54.90 92.37 54.96 90.65 54.94 88.99 C 53.37 87.67 51.54 86.41 50.30 84.78 C 49.92 83.57 51.35 81.96 51.86 80.88 Z"
     fill="#8577b1"
     id="path8715"
     style="fill:#8577b1;fill-opacity:0.66756749" />
  <path
     d="M 89.13 80.58 C 89.09 81.66 89.01 82.73 88.88 83.80 C 86.85 86.08 80.42 87.92 79.78 83.36 C 81.61 83.83 83.94 84.95 85.78 84.27 C 87.29 83.09 87.20 81.22 89.13 80.58 Z"
     fill="#656363"
     id="path8717" />
  <path
     d="M 121.01 83.11 L 121.15 83.53 C 121.58 84.99 121.95 86.33 123.16 87.34 L 122.96 84.09 C 124.02 84.78 125.08 85.47 126.13 86.19 C 124.82 89.58 123.57 92.94 123.04 96.56 C 124.21 97.06 125.38 97.57 126.55 98.08 C 126.19 99.40 125.84 100.73 125.49 102.06 C 123.29 102.05 121.09 102.00 118.90 101.95 C 119.66 97.29 121.27 92.92 123.09 88.59 C 122.40 88.58 121.27 88.11 120.86 88.87 C 120.24 90.66 119.85 92.53 119.26 94.34 C 119.47 91.69 119.93 89.22 121.52 87.01 C 121.37 85.71 121.20 84.41 121.01 83.11 Z"
     fill="#cbcccb"
     id="path8719" />
  <path
     d="M 43.65 83.30 C 46.17 85.17 47.22 87.78 48.48 90.52 C 50.61 95.54 52.40 100.43 51.95 105.99 C 51.63 109.67 52.50 113.79 51.27 117.28 C 50.82 110.31 52.07 104.13 49.71 97.29 C 48.34 92.28 45.35 88.13 43.65 83.30 Z"
     fill="#676275"
     id="path8721" />
  <path
     d="M 42.06 84.49 C 45.56 89.85 48.18 95.84 49.57 102.10 C 47.52 105.50 44.54 108.08 42.41 111.42 C 40.06 115.05 37.79 118.63 34.83 121.81 C 32.47 123.69 34.95 126.25 35.84 128.25 C 34.30 128.79 32.36 129.07 31.07 130.11 C 30.96 131.63 31.04 133.17 31.43 134.64 C 34.83 137.14 39.80 137.70 43.55 139.61 C 45.55 141.13 46.94 143.55 48.62 145.42 C 51.16 148.49 54.41 149.99 57.29 152.71 C 59.67 154.89 61.86 157.83 64.79 159.20 C 69.11 161.15 73.62 162.60 78.28 163.49 C 80.80 163.88 82.62 165.41 84.93 166.29 C 86.09 166.15 87.24 165.96 88.40 165.80 L 88.86 165.73 C 88.34 168.79 89.21 171.45 92.12 172.79 C 96.83 174.58 102.32 173.97 107.30 174.96 C 107.41 179.06 104.06 178.59 101.00 178.88 C 96.25 179.29 92.27 176.85 87.60 176.91 C 90.39 179.18 94.54 179.82 98.01 180.16 C 101.07 180.48 104.85 179.23 107.37 181.12 C 104.34 183.43 100.71 184.09 96.98 184.02 C 93.27 184.14 90.02 182.14 86.23 181.30 C 87.43 183.72 89.89 183.94 92.21 184.81 C 96.04 186.06 99.54 185.41 103.43 185.03 C 102.42 186.12 101.57 187.69 99.93 187.80 C 94.44 188.11 88.70 186.84 83.91 184.10 C 85.28 187.91 90.24 188.24 92.05 192.16 C 85.39 191.58 78.92 186.21 74.30 181.70 C 71.32 178.94 69.59 175.83 68.45 171.96 C 65.62 171.67 63.05 170.65 60.47 169.50 C 53.67 166.54 46.82 164.09 40.16 160.87 C 33.82 157.85 27.73 154.06 21.94 150.12 C 19.10 148.09 16.41 146.29 15.26 142.81 C 13.05 136.93 15.24 130.30 17.97 124.98 C 24.21 113.36 30.82 101.93 37.72 90.70 C 39.04 88.53 40.43 86.43 42.06 84.49 Z"
     fill="#fffffe"
     id="path8723" />
  <path
     d="M 105.80 87.13 C 106.46 87.75 106.28 88.40 105.28 89.07 C 104.55 87.96 104.72 87.31 105.80 87.13 Z"
     fill="#a3a3a3"
     id="path8725" />
  <path
     d="M 126.13 86.19 C 131.90 90.19 136.13 95.71 139.06 102.06 C 134.53 102.07 130.01 102.08 125.49 102.06 C 125.84 100.73 126.19 99.40 126.55 98.08 C 125.38 97.57 124.21 97.06 123.04 96.56 C 123.57 92.94 124.82 89.58 126.13 86.19 Z"
     fill="#fffffe"
     id="path8727" />
  <path
     d="M 92.02 89.22 L 91.85 90.76 C 89.57 92.83 86.78 93.35 83.79 92.83 C 85.75 90.69 89.44 90.55 92.02 89.22 Z"
     fill="#6f6e6d"
     id="path8729" />
  <path
     d="M 105.28 89.07 C 104.98 90.66 104.36 91.99 102.55 92.10 C 103.08 90.71 103.53 89.16 105.28 89.07 Z"
     fill="#b2b3b2"
     id="path8731" />
  <path
     d="M 102.31 92.50 L 102.55 92.10 L 102.83 92.52 L 102.51 92.83 L 102.31 92.50 Z"
     fill="#9a9a99"
     id="path8733" />
  <path
     d="M 49.57 102.10 C 50.36 107.38 50.31 112.87 49.20 118.10 C 49.47 118.66 49.73 119.21 50.00 119.77 C 47.58 123.76 45.07 127.70 42.64 131.69 C 41.48 131.19 40.31 130.69 39.13 130.23 C 40.18 132.62 42.26 133.36 44.31 134.72 C 51.84 139.48 59.32 144.04 66.01 149.99 C 70.74 154.30 75.57 158.50 80.19 162.92 L 81.46 161.32 C 84.62 160.75 87.83 160.55 90.97 159.87 C 91.01 161.64 91.05 163.42 91.10 165.19 C 90.36 165.39 89.61 165.57 88.86 165.73 L 88.40 165.80 C 87.24 165.96 86.09 166.15 84.93 166.29 C 82.62 165.41 80.80 163.88 78.28 163.49 C 73.62 162.60 69.11 161.15 64.79 159.20 C 61.86 157.83 59.67 154.89 57.29 152.71 C 54.41 149.99 51.16 148.49 48.62 145.42 C 46.94 143.55 45.55 141.13 43.55 139.61 C 39.80 137.70 34.83 137.14 31.43 134.64 C 31.04 133.17 30.96 131.63 31.07 130.11 C 32.36 129.07 34.30 128.79 35.84 128.25 C 34.95 126.25 32.47 123.69 34.83 121.81 C 37.79 118.63 40.06 115.05 42.41 111.42 C 44.54 108.08 47.52 105.50 49.57 102.10 Z"
     fill="#cbcccb"
     id="path8735" />
  <path
     d="M 102.05 103.50 C 114.04 103.61 126.03 103.61 138.02 103.57 C 140.14 103.55 142.04 104.21 144.03 104.85 C 143.93 105.87 143.83 106.90 143.73 107.92 C 133.82 108.07 123.90 107.96 113.99 108.01 C 109.77 108.26 105.78 105.30 102.05 103.50 Z"
     fill="#3f8e37"
     id="path8737"
     style="fill:#3f8e37;fill-opacity:0.44864863" />
  <path
     d="M 154.42 102.90 C 153.00 106.24 150.12 109.90 146.06 109.44 C 145.55 108.54 145.19 107.56 144.97 106.50 C 148.17 104.46 150.17 101.51 154.42 102.90 Z"
     fill="#fefefd"
     id="path8739" />
  <path
     d="M 99.32 104.15 C 102.95 105.62 106.40 107.53 109.94 109.20 C 110.05 121.70 110.02 134.21 109.96 146.71 C 106.20 143.66 102.66 140.26 99.19 136.88 C 99.38 125.98 99.11 115.05 99.32 104.15 Z"
     fill="#3f8e37"
     id="path8741"
     style="fill:#3f8e37;fill-opacity:0.47027028" />
  <path
     d="M 157.77 105.26 C 159.07 107.05 157.16 108.74 156.06 110.06 C 154.24 111.63 152.52 113.70 149.99 112.07 C 149.11 110.57 152.08 108.98 152.87 107.83 C 154.66 106.36 155.04 104.36 157.77 105.26 Z"
     fill="#fbfbfb"
     id="path8743" />
  <path
     d="M 97.68 108.77 C 97.87 118.48 97.62 128.20 97.85 137.91 C 99.54 139.46 101.21 141.04 102.87 142.62 C 99.08 143.57 95.09 144.17 91.43 145.56 C 90.35 149.35 91.29 154.22 90.95 158.23 L 89.00 157.63 C 88.15 153.75 88.16 149.09 89.33 145.28 C 90.52 142.24 93.83 142.41 96.52 141.75 C 93.68 133.79 93.99 125.76 94.71 117.48 C 95.09 114.25 96.50 111.72 97.68 108.77 Z"
     fill="#5f558a"
     id="path8745"
     style="fill:#5f558a;fill-opacity:0.52162164" />
  <path
     d="M 142.01 109.47 C 143.83 109.34 144.92 110.43 146.44 111.24 C 135.71 111.43 124.98 111.23 114.25 111.34 C 114.06 122.96 114.22 134.59 114.16 146.21 C 127.74 146.34 141.34 146.32 154.92 146.22 C 154.99 137.82 154.93 129.42 154.95 121.02 C 155.80 121.01 156.65 121.01 157.50 121.00 C 157.48 130.02 157.37 139.04 157.56 148.06 C 142.27 148.29 126.96 148.11 111.66 148.14 C 111.64 135.28 111.74 122.41 111.60 109.55 C 121.74 109.41 131.88 109.54 142.01 109.47 Z"
     fill="#ffffff"
     id="path8747" />
  <path
     d="M 159.21 109.63 C 161.19 114.70 154.66 118.07 150.73 115.49 C 153.79 113.83 156.34 111.55 159.21 109.63 Z"
     fill="#fcfcfb"
     id="path8749" />
  <path
     d="M 115.76 112.98 C 127.03 113.00 138.31 112.83 149.57 113.05 C 149.60 117.24 153.62 118.91 153.37 122.98 C 153.35 130.31 153.40 137.63 153.30 144.95 C 140.80 144.85 128.30 144.89 115.80 144.93 C 115.69 134.28 115.78 123.63 115.76 112.98 Z"
     fill="#64c33d"
     id="path8751"
     style="fill:#64c33d;fill-opacity:0.45405406" />
  <path
     d="M 161.34 114.32 C 161.19 119.11 156.81 120.50 152.88 118.89 C 155.78 117.42 158.77 116.39 161.34 114.32 Z"
     fill="#dbdada"
     id="path8753" />
  <path
     d="M 123.94 116.38 C 129.46 116.83 136.07 115.68 141.25 117.75 C 148.99 121.32 149.23 133.74 142.00 138.01 C 137.07 141.06 129.50 139.28 123.84 139.96 C 124.90 139.18 126.98 138.51 127.01 136.99 C 127.44 133.03 127.06 128.98 127.20 125.00 C 127.14 122.81 127.42 120.31 126.70 118.23 C 125.82 117.54 124.88 116.96 123.94 116.38 Z"
     fill="#191318"
     id="path8755" />
  <path
     d="M 130.41 118.21 C 133.83 117.50 137.32 117.49 140.04 119.96 C 144.48 123.94 144.44 132.13 140.28 136.30 C 137.35 139.00 133.91 138.73 130.23 138.20 C 130.48 131.54 130.08 124.85 130.41 118.21 Z"
     fill="#64c33d"
     id="path8757"
     style="fill:#64c33d;fill-opacity:0.43783784" />
  <path
     d="M 51.28 120.32 C 52.86 120.52 51.94 122.69 50.77 122.82 C 49.19 122.60 50.10 120.46 51.28 120.32 Z"
     fill="#4c4854"
     id="path8759" />
  <path
     d="M 48.63 125.53 C 48.17 127.34 47.42 129.14 47.20 131.00 C 47.37 132.59 48.25 134.11 48.76 135.61 C 47.07 134.66 45.39 133.69 43.71 132.73 C 44.43 131.46 45.18 130.21 45.91 128.95 L 46.29 128.36 C 47.04 127.40 47.83 126.46 48.63 125.53 Z"
     fill="#eeeeee"
     id="path8761" />
  <path
     d="M 104.07 143.82 C 106.58 145.49 108.55 148.30 111.22 149.61 C 117.20 150.08 123.27 149.48 129.26 149.86 C 124.78 151.45 119.78 153.89 115.05 151.90 C 108.55 149.86 101.80 148.46 95.41 146.12 C 98.27 145.27 101.16 144.49 104.07 143.82 Z"
     fill="#f8af40"
     id="path8763"
     style="fill:#f8af40;fill-opacity:0.46756756" />
  <path
     d="M 92.50 147.05 C 101.03 149.54 109.60 151.96 118.18 154.23 C 118.45 166.43 118.21 178.65 118.31 190.85 C 113.51 188.90 108.52 187.67 103.93 185.32 C 105.27 184.32 107.18 183.43 108.06 181.97 C 107.96 181.03 107.82 180.10 107.67 179.17 C 108.72 176.90 109.63 175.53 107.34 173.65 C 103.13 172.01 96.81 173.68 92.81 171.17 C 92.33 169.91 92.53 168.34 92.47 167.01 C 92.59 160.36 92.50 153.70 92.50 147.05 Z"
     fill="#f4ad40"
     id="path8765"
     style="fill:#f4ad40;fill-opacity:0.48378381" />
  <path
     d="M 142.38 149.67 C 136.02 152.26 128.96 153.38 122.38 155.38 C 122.36 166.11 122.23 176.85 122.45 187.58 C 131.94 185.03 141.32 182.04 150.80 179.43 C 152.03 178.93 153.70 178.82 153.45 177.06 C 153.54 168.71 153.43 160.35 153.45 152.00 C 153.29 150.72 153.80 149.78 154.97 149.18 C 155.27 159.67 155.02 170.18 155.01 180.67 C 143.29 184.09 131.52 187.40 119.86 191.02 C 119.89 178.75 119.79 166.48 119.91 154.21 C 127.26 152.64 134.96 148.98 142.38 149.67 Z"
     fill="#e6e6e6"
     id="path8767" />
  <path
     d="M 152.00 149.58 C 151.98 158.92 152.04 168.26 151.96 177.60 C 142.58 180.23 133.24 183.01 123.90 185.78 C 123.93 175.98 123.77 166.18 123.98 156.39 C 131.00 154.61 138.01 152.73 144.99 150.78 C 147.28 150.11 149.63 149.83 152.00 149.58 Z"
     fill="#facc70"
     id="path8769"
     style="fill:#facc70;fill-opacity:0.48918918" />
  <path
     d="M 141.00 154.90 C 144.12 154.50 146.81 156.17 147.87 159.11 C 149.86 164.94 147.04 171.68 142.13 175.16 C 137.52 178.48 131.04 179.51 125.72 181.47 C 127.33 180.13 129.51 179.54 129.31 177.06 C 129.49 171.21 129.33 165.33 129.31 159.48 C 128.08 159.40 126.86 159.33 125.63 159.25 C 130.69 157.75 135.77 155.62 141.00 154.90 Z"
     fill="#0f0f15"
     id="path8771" />
  <path
     d="M 142.79 158.21 C 145.96 161.63 145.06 168.05 142.78 171.75 C 140.48 175.60 136.74 177.02 132.54 177.89 C 132.48 171.48 132.57 165.08 132.48 158.67 C 135.79 157.32 139.67 155.25 142.79 158.21 Z"
     fill="#facc70"
     id="path8773"
     style="fill:#facc70;fill-opacity:0.53243244" />
  <path
     d="M 45.72 164.95 C 52.36 167.81 59.06 170.56 65.75 173.30 C 63.04 175.98 60.17 175.04 56.73 175.27 C 59.31 177.22 62.16 177.20 65.23 177.56 C 62.52 178.08 59.80 178.52 57.09 179.02 C 62.70 182.39 69.93 182.95 75.50 186.49 C 79.42 189.47 82.85 193.17 86.36 196.62 L 85.49 196.93 C 75.89 193.93 66.69 189.90 57.16 186.73 C 55.43 186.09 53.92 184.62 52.54 183.43 C 46.96 178.20 40.07 174.72 33.87 170.14 C 36.23 169.34 38.43 168.92 40.93 168.77 C 42.55 170.56 43.78 171.50 46.19 171.99 C 45.31 170.66 44.18 169.66 42.94 168.69 C 43.84 167.42 44.74 166.16 45.72 164.95 Z"
     fill="#8577b1"
     id="path8775" />
  <path
     d="M 90.14 167.22 L 90.92 167.22 L 91.29 167.99 L 90.91 168.75 L 90.13 168.74 L 89.76 167.98 L 90.14 167.22 Z"
     fill="#817a93"
     id="path8777" />
  <path
     d="M 156.52 170.38 C 168.01 171.29 179.00 174.14 188.89 180.17 C 193.76 183.28 195.34 189.54 194.99 195.00 C 194.63 199.99 191.62 203.89 187.63 206.66 C 178.82 212.48 168.70 214.53 158.25 214.36 C 156.79 211.83 155.24 209.34 153.86 206.76 C 153.85 205.94 153.84 205.12 153.84 204.30 C 155.40 201.77 156.50 199.39 156.58 196.38 C 158.22 194.74 159.81 193.06 161.32 191.30 C 159.33 190.37 157.45 189.33 155.66 188.06 C 159.96 187.03 164.94 186.90 168.93 184.96 C 171.77 183.07 174.07 180.36 176.75 178.23 C 169.86 179.07 163.46 176.88 156.61 177.09 C 156.62 174.86 156.56 172.62 156.52 170.38 Z"
     fill="#fffffe"
     id="path8779" />
  <path
     d="M 33.97 172.16 C 40.17 176.41 47.02 180.06 52.37 185.31 C 43.47 183.10 34.76 182.60 25.63 182.61 C 29.51 181.32 33.42 181.42 37.45 181.29 C 36.42 180.35 35.39 179.42 34.36 178.48 C 35.74 178.41 37.11 178.34 38.49 178.27 C 36.30 176.41 34.16 174.50 32.08 172.51 L 33.97 172.16 Z"
     fill="#cbcccb"
     id="path8781" />
  <path
     d="M 32.08 172.51 C 34.16 174.50 36.30 176.41 38.49 178.27 C 37.11 178.34 35.74 178.41 34.36 178.48 C 35.39 179.42 36.42 180.35 37.45 181.29 C 33.42 181.42 29.51 181.32 25.63 182.61 C 24.01 182.89 22.61 182.59 21.44 183.94 C 28.01 184.23 34.50 183.73 41.04 184.85 C 57.86 186.65 70.54 194.21 87.46 199.13 C 87.72 196.04 92.24 195.17 94.46 193.84 C 94.54 200.21 94.51 206.59 94.48 212.96 C 89.64 212.61 84.82 212.78 79.98 212.76 C 77.10 212.77 74.93 210.89 72.01 211.03 C 61.89 211.21 51.79 211.61 41.66 211.24 C 42.52 210.03 43.38 208.82 44.25 207.61 C 36.02 207.73 28.17 208.25 19.99 206.86 C 15.78 206.14 11.16 205.04 7.90 202.11 C 6.42 200.96 5.43 199.61 3.45 199.43 C 2.80 194.54 2.51 189.75 5.38 185.45 C 8.22 181.33 12.60 180.16 16.77 177.78 C 21.54 175.06 26.74 173.60 32.08 172.51 Z"
     fill="#fffffe"
     id="path8783" />
  <path
     d="M 65.75 173.30 C 67.96 173.94 68.71 177.27 70.04 178.99 C 75.19 186.13 82.17 190.53 90.12 194.04 C 88.88 194.92 87.64 195.81 86.36 196.62 C 82.85 193.17 79.42 189.47 75.50 186.49 C 69.93 182.95 62.70 182.39 57.09 179.02 C 59.80 178.52 62.52 178.08 65.23 177.56 C 62.16 177.20 59.31 177.22 56.73 175.27 C 60.17 175.04 63.04 175.98 65.75 173.30 Z"
     fill="#5e5487"
     id="path8785"
     style="fill:#5e5487;fill-opacity:0.66486478" />
  <path
     d="M 156.61 177.09 C 163.46 176.88 169.86 179.07 176.75 178.23 C 174.07 180.36 171.77 183.07 168.93 184.96 C 164.94 186.90 159.96 187.03 155.66 188.06 C 157.45 189.33 159.33 190.37 161.32 191.30 C 159.81 193.06 158.22 194.74 156.58 196.38 C 156.50 199.39 155.40 201.77 153.84 204.30 C 153.74 198.90 153.80 193.51 153.76 188.12 C 151.70 187.39 149.66 186.61 147.67 185.68 C 152.04 184.34 156.48 183.26 160.97 182.48 C 164.67 181.81 168.55 182.13 172.37 181.82 C 171.26 181.19 170.36 180.47 169.01 180.49 C 164.71 180.32 160.61 180.96 156.41 181.83 C 156.50 180.25 156.56 178.67 156.61 177.09 Z"
     fill="#cbcccb"
     id="path8787" />
  <path
     d="M 140.28 186.01 C 143.47 185.65 145.61 186.46 148.36 187.88 C 144.42 188.07 140.52 187.99 136.57 187.99 C 137.81 187.33 139.05 186.67 140.28 186.01 Z"
     fill="#d1d0d0"
     id="path8789" />
  <path
     d="M 103.94 187.92 C 104.77 188.24 105.59 188.56 106.41 188.90 C 106.33 201.46 106.50 214.03 106.32 226.58 C 102.74 223.52 99.44 220.18 96.04 216.92 C 96.07 207.80 96.02 198.68 96.08 189.55 C 98.91 189.47 101.31 188.88 103.94 187.92 Z"
     fill="#b83130"
     id="path8791"
     style="fill:#b83130;fill-opacity:0.55945945" />
  <path
     d="M 92.10 188.92 C 93.05 188.98 93.99 189.06 94.94 189.15 C 94.52 190.59 94.09 192.02 93.61 193.43 C 93.07 191.94 92.52 190.45 92.10 188.92 Z"
     fill="#524b78"
     id="path8793" />
  <path
     d="M 108.15 189.11 C 110.21 189.26 112.02 190.04 113.87 190.90 C 112.69 191.04 111.51 191.18 110.32 191.32 C 110.31 202.85 110.33 214.39 110.31 225.93 C 123.46 226.07 136.63 226.01 149.78 225.95 C 149.82 214.37 149.84 202.78 149.77 191.19 C 141.71 190.93 133.64 191.30 125.58 190.99 C 127.63 190.01 129.67 189.23 131.97 189.23 C 138.69 189.20 145.41 189.33 152.14 189.20 C 152.19 202.13 152.20 215.07 152.21 228.00 C 137.45 228.00 122.69 228.00 107.92 228.00 C 108.11 215.06 107.64 202.03 108.15 189.11 Z"
     fill="#f9f9f8"
     id="path8795" />
  <path
     d="M 112.15 192.70 C 118.08 192.37 124.06 192.72 130.00 192.63 C 135.99 192.83 142.14 192.24 148.08 192.87 C 148.48 203.39 148.13 214.02 148.22 224.57 C 136.15 224.61 124.07 224.52 112.00 224.62 C 112.11 214.00 111.76 203.30 112.15 192.70 Z"
     fill="#e86c5d"
     id="path8797"
     style="fill:#e86c5d;fill-opacity:0.51351351" />
  <path
     d="M 179.11 192.16 C 181.25 192.30 181.59 196.10 182.68 197.64 C 182.13 197.83 181.57 198.02 181.02 198.21 C 180.00 196.17 178.72 194.58 179.11 192.16 Z"
     fill="#6a6969"
     id="path8799" />
  <path
     d="M 131.01 197.03 C 133.79 197.22 136.43 197.55 138.75 199.23 C 145.24 204.14 144.21 216.36 136.26 219.29 C 131.03 221.28 124.57 220.02 119.02 220.49 C 120.27 219.93 121.52 219.39 122.76 218.82 C 122.77 212.01 122.89 205.18 122.68 198.36 C 121.39 198.02 120.11 197.68 118.83 197.33 C 122.88 196.97 126.94 196.83 131.01 197.03 Z"
     fill="#161717"
     id="path8801" />
  <path
     d="M 17.97 197.84 C 17.94 200.63 18.50 202.57 15.20 203.41 C 15.87 201.19 15.46 198.82 17.97 197.84 Z"
     fill="#676665"
     id="path8803" />
  <path
     d="M 7.90 202.11 C 11.16 205.04 15.78 206.14 19.99 206.86 C 28.17 208.25 36.02 207.73 44.25 207.61 C 43.38 208.82 42.52 210.03 41.66 211.24 C 51.79 211.61 61.89 211.21 72.01 211.03 C 74.93 210.89 77.10 212.77 79.98 212.76 C 84.82 212.78 89.64 212.61 94.48 212.96 L 94.47 214.92 C 88.24 214.62 82.20 215.89 76.00 216.01 C 69.00 216.24 62.01 216.84 55.01 216.99 C 40.38 216.83 26.27 215.39 12.79 209.29 C 8.29 207.52 4.61 204.28 3.45 199.43 C 5.43 199.61 6.42 200.96 7.90 202.11 Z"
     fill="#cacbca"
     id="path8805" />
  <path
     d="M 126.14 198.66 C 130.11 197.97 133.86 198.13 136.71 201.33 C 140.19 205.41 139.97 213.27 135.95 216.94 C 133.02 219.53 129.82 219.19 126.20 218.82 C 126.19 212.10 126.28 205.38 126.14 198.66 Z"
     fill="#e86c5d"
     id="path8807"
     style="fill:#e86c5d;fill-opacity:0.54324323" />
  <path
     d="M 153.86 206.76 C 155.24 209.34 156.79 211.83 158.25 214.36 C 156.76 214.37 155.27 214.37 153.78 214.36 C 153.80 211.83 153.84 209.30 153.86 206.76 Z"
     fill="#d6d7d6"
     id="path8809" />
</svg>
